  0
SECTION
  2
HEADER
  9
$ACADVER
  1
AC1009
  9
$INSBASE
 10
0.0
 20
0.0
 30
0.0
  9
$EXTMIN
 10
0.0
 20
0.0
 30
0.0
  9
$EXTMAX
 10
100.0
 20
100.0
 30
0.0
  9
$UNITMODE
 70
0
  9
$AUNITS
 70
0
  9
$ANGBASE
 50
0.0
  9
$ANGDIR
 70
0
  0
ENDSEC
  0
SECTION
  2
TABLES
  0
TABLE
  2
LTYPE
 70
19
  0
LTYPE
  2
CONTINUOUS
 70
0
  3
Solid
 72
65
 73
0
 40
0.0
  0
LTYPE
  2
CENTER
 70
0
  3
Center ____ _ ____ _ ____ _ ____ _ ____ _ ____
 72
65
 73
4
 40
2.0
 49
1.25
 49
-0.25
 49
0.25
 49
-0.25
  0
LTYPE
  2
CENTERX2
 70
0
  3
Center (2x) ________  __  ________  __  ________
 72
65
 73
4
 40
3.5
 49
2.5
 49
-0.25
 49
0.5
 49
-0.25
  0
LTYPE
  2
CENTER2
 70
0
  3
Center (.5x) ____ _ ____ _ ____ _ ____ _ ____
 72
65
 73
4
 40
1.0
 49
0.625
 49
-0.125
 49
0.125
 49
-0.125
  0
LTYPE
  2
DASHED
 70
0
  3
Dashed __ __ __ __ __ __ __ __ __ __ __ __ __ _
 72
65
 73
2
 40
0.6
 49
0.5
 49
-0.1
  0
LTYPE
  2
DASHEDX2
 70
0
  3
Dashed (2x) ____  ____  ____  ____  ____  ____
 72
65
 73
2
 40
1.2
 49
1.0
 49
-0.2
  0
LTYPE
  2
DASHED2
 70
0
  3
Dashed (.5x) _ _ _ _ _ _ _ _ _ _ _ _ _ _
 72
65
 73
2
 40
0.3
 49
0.25
 49
-0.05
  0
LTYPE
  2
PHANTOM
 70
0
  3
Phantom ______  __  __  ______  __  __  ______
 72
65
 73
6
 40
2.5
 49
1.25
 49
-0.25
 49
0.25
 49
-0.25
 49
0.25
 49
-0.25
  0
LTYPE
  2
PHANTOMX2
 70
0
  3
Phantom (2x)____________    ____    ____    ____________
 72
65
 73
6
 40
4.25
 49
2.5
 49
-0.25
 49
0.5
 49
-0.25
 49
0.5
 49
-0.25
  0
LTYPE
  2
PHANTOM2
 70
0
  3
Phantom (.5x) ___ _ _ ___ _ _ ___ _ _ ___ _ _ ___
 72
65
 73
6
 40
1.25
 49
0.625
 49
-0.125
 49
0.125
 49
-0.125
 49
0.125
 49
-0.125
  0
LTYPE
  2
DASHDOT
 70
0
  3
Dash dot __ . __ . __ . __ . __ . __ . __ . __
 72
65
 73
4
 40
1.4
 49
1.0
 49
-0.2
 49
0.0
 49
-0.2
  0
LTYPE
  2
DASHDOTX2
 70
0
  3
Dash dot (2x) ____  .  ____  .  ____  .  ____
 72
65
 73
4
 40
2.4
 49
2.0
 49
-0.2
 49
0.0
 49
-0.2
  0
LTYPE
  2
DASHDOT2
 70
0
  3
Dash dot (.5x) _ . _ . _ . _ . _ . _ . _ . _
 72
65
 73
4
 40
0.7
 49
0.5
 49
-0.1
 49
0.0
 49
-0.1
  0
LTYPE
  2
DOT
 70
0
  3
Dot .  .  .  .  .  .  .  .  .  .  .  .  .  .  .  .
 72
65
 73
2
 40
0.2
 49
0.0
 49
-0.2
  0
LTYPE
  2
DOTX2
 70
0
  3
Dot (2x) .    .    .    .    .    .    .    . 
 72
65
 73
2
 40
0.4
 49
0.0
 49
-0.4
  0
LTYPE
  2
DOT2
 70
0
  3
Dot (.5) . . . . . . . . . . . . . . . . . . . 
 72
65
 73
2
 40
0.1
 49
0.0
 49
-0.1
  0
LTYPE
  2
DIVIDE
 70
0
  3
Divide __ . . __ . . __ . . __ . . __ . . __
 72
65
 73
6
 40
1.6
 49
1.0
 49
-0.2
 49
0.0
 49
-0.2
 49
0.0
 49
-0.2
  0
LTYPE
  2
DIVIDEX2
 70
0
  3
Divide (2x) ____  . .  ____  . .  ____  . .  ____
 72
65
 73
6
 40
2.6
 49
2.0
 49
-0.2
 49
0.0
 49
-0.2
 49
0.0
 49
-0.2
  0
LTYPE
  2
DIVIDE2
 70
0
  3
Divide(.5x) _ . _ . _ . _ . _ . _ . _ . _
 72
65
 73
6
 40
0.8
 49
0.5
 49
-0.1
 49
0.0
 49
-0.1
 49
0.0
 49
-0.1
  0
ENDTAB
  0
TABLE
  2
LAYER
 70
14
  0
LAYER
  2
DIMENSIONS
 70
0
 62
1
  6
CONTINUOUS
  0
LAYER
  2
TABLEBACKGROUND
 70
0
 62
1
  6
CONTINUOUS
  0
LAYER
  2
TABLECONTENT
 70
0
 62
1
  6
CONTINUOUS
  0
LAYER
  2
TABLEGRID
 70
0
 62
1
  6
CONTINUOUS
  0
LAYER
  2
VIEWPORTS
 70
0
 62
7
  6
CONTINUOUS
  0
LAYER
  2
ondergrond2top_impermeable_layer_1
 70
0
 62
1
  6
CONTINUOUS
  0
LAYER
  2
ondergrond2top_impermeable_layer_2
 70
0
 62
1
  6
CONTINUOUS
  0
LAYER
  2
ondergrond2top_impermeable_layer_3
 70
0
 62
1
  6
CONTINUOUS
  0
LAYER
  2
ondergrond2top_impermeable_layer_4
 70
0
 62
1
  6
CONTINUOUS
  0
LAYER
  2
ondergrond2top_impermeable_layer_5
 70
0
 62
1
  6
CONTINUOUS
  0
LAYER
  2
ondergrond2top_impermeable_layer_6
 70
0
 62
1
  6
CONTINUOUS
  0
LAYER
  2
ondergrond2top_impermeable_layer_7
 70
0
 62
1
  6
CONTINUOUS
  0
LAYER
  2
ondergrond2top_impermeable_layer_8
 70
0
 62
1
  6
CONTINUOUS
  0
LAYER
  2
ondergrond2geohydrological_base_layer
 70
0
 62
1
  6
CONTINUOUS
  0
ENDTAB
  0
TABLE
  2
STYLE
 70
12
  0
STYLE
  2
STANDARD
 70
0
 40
0.0
 41
1.0
 42
1.0
 50
0.0
 71
0
  3
arial.ttf
  4

  0
STYLE
  2
ARIAL
 70
0
 40
0.0
 41
1.0
 42
1.0
 50
0.0
 71
0
  3
arial.ttf
  4

  0
STYLE
  2
ARIAL_BOLD
 70
0
 40
0.0
 41
1.0
 42
1.0
 50
0.0
 71
0
  3
arialbd.ttf
  4

  0
STYLE
  2
ARIAL_ITALIC
 70
0
 40
0.0
 41
1.0
 42
1.0
 50
0.0
 71
0
  3
ariali.ttf
  4

  0
STYLE
  2
ARIAL_BOLD_ITALIC
 70
0
 40
0.0
 41
1.0
 42
1.0
 50
0.0
 71
0
  3
arialbi.ttf
  4

  0
STYLE
  2
ARIAL_BLACK
 70
0
 40
0.0
 41
1.0
 42
1.0
 50
0.0
 71
0
  3
ariblk.ttf
  4

  0
STYLE
  2
ISOCPEUR
 70
0
 40
0.0
 41
1.0
 42
1.0
 50
0.0
 71
0
  3
isocpeur.ttf
  4

  0
STYLE
  2
ISOCPEUR_ITALIC
 70
0
 40
0.0
 41
1.0
 42
1.0
 50
0.0
 71
0
  3
isocpeui.ttf
  4

  0
STYLE
  2
TIMES
 70
0
 40
0.0
 41
1.0
 42
1.0
 50
0.0
 71
0
  3
times.ttf
  4

  0
STYLE
  2
TIMES_BOLD
 70
0
 40
0.0
 41
1.0
 42
1.0
 50
0.0
 71
0
  3
timesbd.ttf
  4

  0
STYLE
  2
TIMES_ITALIC
 70
0
 40
0.0
 41
1.0
 42
1.0
 50
0.0
 71
0
  3
timesi.ttf
  4

  0
STYLE
  2
TIMES_BOLD_ITALIC
 70
0
 40
0.0
 41
1.0
 42
1.0
 50
0.0
 71
0
  3
timesbi.ttf
  4

  0
ENDTAB
  0
TABLE
  2
VIEW
 70
0
  0
ENDTAB
  0
TABLE
  2
APPID
 70
1
  0
APPID
  2
DXFWRITE
 70
0
  0
ENDTAB
  0
TABLE
  2
VPORT
 70
0
  0
ENDTAB
  0
TABLE
  2
UCS
 70
0
  0
ENDTAB
  0
ENDSEC
  0
SECTION
  2
BLOCKS
  0
ENDSEC
  0
SECTION
  2
ENTITIES
  0
VIEWPORT
  8
VIEWPORTS
 67
1
 10
0.0
 20
0.0
 30
0.0
 40
1.0
 41
1.0
 68
1
 69
1
1001
ACAD
1000
MVIEW
1002
{
1070
16
1010
0.0
1020
0.0
1030
0.0
1010
0.0
1020
0.0
1030
0.0
1040
0.0
1040
1.0
1040
0.0
1040
0.0
1040
50.0
1040
0.0
1040
0.0
1070
0
1070
100
1070
1
1070
3
1070
0
1070
0
1070
0
1070
0
1040
0.0
1040
0.0
1040
0.0
1040
0.1
1040
0.1
1040
0.1
1040
0.1
1070
0
1002
{
1002
}
1002
}
  0
POLYLINE
 62
7
  8
ondergrond2top_impermeable_layer_1
 66
1
 10
0.0
 20
0.0
 30
0.0
 70
8
  0
VERTEX
  8
ondergrond2top_impermeable_layer_1
 10
0.0
 20
10.84000015258789
 30
0.0
  0
VERTEX
  8
ondergrond2top_impermeable_layer_1
 10
251.96108140621268
 20
10.829999923706055
 30
0.0
  0
VERTEX
  8
ondergrond2top_impermeable_layer_1
 10
503.92216281242537
 20
10.84000015258789
 30
0.0
  0
VERTEX
  8
ondergrond2top_impermeable_layer_1
 10
755.8832442186381
 20
11.829999923706055
 30
0.0
  0
VERTEX
  8
ondergrond2top_impermeable_layer_1
 10
1007.8443256248507
 20
11.800000190734863
 30
0.0
  0
VERTEX
  8
ondergrond2top_impermeable_layer_1
 10
1259.8054070310634
 20
11.6899995803833
 30
0.0
  0
VERTEX
  8
ondergrond2top_impermeable_layer_1
 10
1511.7664884372762
 20
12.989999771118164
 30
0.0
  0
VERTEX
  8
ondergrond2top_impermeable_layer_1
 10
1763.7275698434887
 20
12.350000381469727
 30
0.0
  0
VERTEX
  8
ondergrond2top_impermeable_layer_1
 10
2015.6886512497015
 20
14.859999656677246
 30
0.0
  0
VERTEX
  8
ondergrond2top_impermeable_layer_1
 10
2267.6497326559142
 20
16.299999237060547
 30
0.0
  0
VERTEX
  8
ondergrond2top_impermeable_layer_1
 10
2519.610814062127
 20
18.020000457763672
 30
0.0
  0
VERTEX
  8
ondergrond2top_impermeable_layer_1
 10
2771.5718954683393
 20
24.68000030517578
 30
0.0
  0
VERTEX
  8
ondergrond2top_impermeable_layer_1
 10
3023.5329768745523
 20
31.280000686645508
 30
0.0
  0
VERTEX
  8
ondergrond2top_impermeable_layer_1
 10
3275.494058280765
 20
49.439998626708984
 30
0.0
  0
VERTEX
  8
ondergrond2top_impermeable_layer_1
 10
3527.4551396869774
 20
56.56999969482422
 30
0.0
  0
VERTEX
  8
ondergrond2top_impermeable_layer_1
 10
3779.4162210931904
 20
65.36000061035156
 30
0.0
  0
VERTEX
  8
ondergrond2top_impermeable_layer_1
 10
4031.377302499403
 20
65.69000244140625
 30
0.0
  0
VERTEX
  8
ondergrond2top_impermeable_layer_1
 10
4283.338383905616
 20
60.779998779296875
 30
0.0
  0
VERTEX
  8
ondergrond2top_impermeable_layer_1
 10
4535.2994653118285
 20
59.619998931884766
 30
0.0
  0
VERTEX
  8
ondergrond2top_impermeable_layer_1
 10
4787.260546718041
 20
61.56999969482422
 30
0.0
  0
VERTEX
  8
ondergrond2top_impermeable_layer_1
 10
5039.221628124254
 20
56.04999923706055
 30
0.0
  0
VERTEX
  8
ondergrond2top_impermeable_layer_1
 10
5291.182709530466
 20
42.939998626708984
 30
0.0
  0
VERTEX
  8
ondergrond2top_impermeable_layer_1
 10
5543.143790936679
 20
39.77000045776367
 30
0.0
  0
VERTEX
  8
ondergrond2top_impermeable_layer_1
 10
5795.104872342892
 20
33.290000915527344
 30
0.0
  0
VERTEX
  8
ondergrond2top_impermeable_layer_1
 10
6047.065953749105
 20
27.84000015258789
 30
0.0
  0
VERTEX
  8
ondergrond2top_impermeable_layer_1
 10
6299.027035155317
 20
22.510000228881836
 30
0.0
  0
VERTEX
  8
ondergrond2top_impermeable_layer_1
 10
6550.98811656153
 20
18.469999313354492
 30
0.0
  0
VERTEX
  8
ondergrond2top_impermeable_layer_1
 10
6802.949197967742
 20
16.979999542236328
 30
0.0
  0
VERTEX
  8
ondergrond2top_impermeable_layer_1
 10
7054.910279373955
 20
16.1200008392334
 30
0.0
  0
VERTEX
  8
ondergrond2top_impermeable_layer_1
 10
7306.871360780168
 20
14.90999984741211
 30
0.0
  0
VERTEX
  8
ondergrond2top_impermeable_layer_1
 10
7558.832442186381
 20
13.229999542236328
 30
0.0
  0
VERTEX
  8
ondergrond2top_impermeable_layer_1
 10
7810.793523592593
 20
12.09000015258789
 30
0.0
  0
VERTEX
  8
ondergrond2top_impermeable_layer_1
 10
8062.754604998806
 20
10.600000381469727
 30
0.0
  0
VERTEX
  8
ondergrond2top_impermeable_layer_1
 10
8314.71568640502
 20
9.930000305175781
 30
0.0
  0
VERTEX
  8
ondergrond2top_impermeable_layer_1
 10
8566.676767811232
 20
9.4399995803833
 30
0.0
  0
VERTEX
  8
ondergrond2top_impermeable_layer_1
 10
8818.637849217444
 20
9.220000267028809
 30
0.0
  0
VERTEX
  8
ondergrond2top_impermeable_layer_1
 10
9070.598930623657
 20
9.420000076293945
 30
0.0
  0
VERTEX
  8
ondergrond2top_impermeable_layer_1
 10
9322.56001202987
 20
8.800000190734863
 30
0.0
  0
VERTEX
  8
ondergrond2top_impermeable_layer_1
 10
9574.521093436082
 20
8.359999656677246
 30
0.0
  0
VERTEX
  8
ondergrond2top_impermeable_layer_1
 10
9826.482174842295
 20
9.229999542236328
 30
0.0
  0
VERTEX
  8
ondergrond2top_impermeable_layer_1
 10
10078.443256248507
 20
9.039999961853027
 30
0.0
  0
VERTEX
  8
ondergrond2top_impermeable_layer_1
 10
10330.40433765472
 20
9.59000015258789
 30
0.0
  0
VERTEX
  8
ondergrond2top_impermeable_layer_1
 10
10582.365419060932
 20
8.949999809265137
 30
0.0
  0
VERTEX
  8
ondergrond2top_impermeable_layer_1
 10
10834.326500467145
 20
8.300000190734863
 30
0.0
  0
VERTEX
  8
ondergrond2top_impermeable_layer_1
 10
11086.287581873357
 20
10.289999961853027
 30
0.0
  0
VERTEX
  8
ondergrond2top_impermeable_layer_1
 10
11338.248663279572
 20
9.149999618530273
 30
0.0
  0
VERTEX
  8
ondergrond2top_impermeable_layer_1
 10
11590.209744685784
 20
10.520000457763672
 30
0.0
  0
VERTEX
  8
ondergrond2top_impermeable_layer_1
 10
11842.170826091997
 20
10.989999771118164
 30
0.0
  0
VERTEX
  8
ondergrond2top_impermeable_layer_1
 10
12094.13190749821
 20
10.600000381469727
 30
0.0
  0
VERTEX
  8
ondergrond2top_impermeable_layer_1
 10
12346.092988904422
 20
9.359999656677246
 30
0.0
  0
VERTEX
  8
ondergrond2top_impermeable_layer_1
 10
12598.054070310634
 20
9.050000190734863
 30
0.0
  0
VERTEX
  8
ondergrond2top_impermeable_layer_1
 10
12850.015151716847
 20
9.180000305175781
 30
0.0
  0
VERTEX
  8
ondergrond2top_impermeable_layer_1
 10
13101.97623312306
 20
9.1899995803833
 30
0.0
  0
VERTEX
  8
ondergrond2top_impermeable_layer_1
 10
13353.937314529272
 20
9.010000228881836
 30
0.0
  0
VERTEX
  8
ondergrond2top_impermeable_layer_1
 10
13605.898395935485
 20
9.050000190734863
 30
0.0
  0
VERTEX
  8
ondergrond2top_impermeable_layer_1
 10
13857.859477341697
 20
9.319999694824219
 30
0.0
  0
VERTEX
  8
ondergrond2top_impermeable_layer_1
 10
14109.82055874791
 20
9.119999885559082
 30
0.0
  0
VERTEX
  8
ondergrond2top_impermeable_layer_1
 10
14361.781640154122
 20
9.180000305175781
 30
0.0
  0
VERTEX
  8
ondergrond2top_impermeable_layer_1
 10
14613.742721560337
 20
9.010000228881836
 30
0.0
  0
VERTEX
  8
ondergrond2top_impermeable_layer_1
 10
14865.70380296655
 20
9.640000343322754
 30
0.0
  0
VERTEX
  8
ondergrond2top_impermeable_layer_1
 10
15117.664884372762
 20
9.550000190734863
 30
0.0
  0
VERTEX
  8
ondergrond2top_impermeable_layer_1
 10
15369.625965778974
 20
9.15999984741211
 30
0.0
  0
VERTEX
  8
ondergrond2top_impermeable_layer_1
 10
15621.587047185187
 20
8.300000190734863
 30
0.0
  0
VERTEX
  8
ondergrond2top_impermeable_layer_1
 10
15873.5481285914
 20
8.25
 30
0.0
  0
VERTEX
  8
ondergrond2top_impermeable_layer_1
 10
16125.509209997612
 20
8.829999923706055
 30
0.0
  0
VERTEX
  8
ondergrond2top_impermeable_layer_1
 10
16377.470291403824
 20
9.699999809265137
 30
0.0
  0
VERTEX
  8
ondergrond2top_impermeable_layer_1
 10
16629.43137281004
 20
8.789999961853027
 30
0.0
  0
VERTEX
  8
ondergrond2top_impermeable_layer_1
 10
16881.39245421625
 20
9.079999923706055
 30
0.0
  0
VERTEX
  8
ondergrond2top_impermeable_layer_1
 10
17133.353535622464
 20
9.170000076293945
 30
0.0
  0
VERTEX
  8
ondergrond2top_impermeable_layer_1
 10
17385.314617028675
 20
9.329999923706055
 30
0.0
  0
VERTEX
  8
ondergrond2top_impermeable_layer_1
 10
17637.27569843489
 20
9.25
 30
0.0
  0
VERTEX
  8
ondergrond2top_impermeable_layer_1
 10
17889.2367798411
 20
-15.6899995803833
 30
0.0
  0
VERTEX
  8
ondergrond2top_impermeable_layer_1
 10
18141.197861247314
 20
9.3100004196167
 30
0.0
  0
VERTEX
  8
ondergrond2top_impermeable_layer_1
 10
18393.158942653525
 20
7.0
 30
0.0
  0
VERTEX
  8
ondergrond2top_impermeable_layer_1
 10
18645.12002405974
 20
10.390000343322754
 30
0.0
  0
VERTEX
  8
ondergrond2top_impermeable_layer_1
 10
18897.08110546595
 20
10.399999618530273
 30
0.0
  0
VERTEX
  8
ondergrond2top_impermeable_layer_1
 10
19149.042186872164
 20
10.40999984741211
 30
0.0
  0
VERTEX
  8
ondergrond2top_impermeable_layer_1
 10
19401.00326827838
 20
10.420000076293945
 30
0.0
  0
VERTEX
  8
ondergrond2top_impermeable_layer_1
 10
19652.96434968459
 20
10.390000343322754
 30
0.0
  0
VERTEX
  8
ondergrond2top_impermeable_layer_1
 10
19904.925431090804
 20
10.609999656677246
 30
0.0
  0
VERTEX
  8
ondergrond2top_impermeable_layer_1
 10
20156.886512497014
 20
10.399999618530273
 30
0.0
  0
VERTEX
  8
ondergrond2top_impermeable_layer_1
 10
20408.84759390323
 20
10.260000228881836
 30
0.0
  0
VERTEX
  8
ondergrond2top_impermeable_layer_1
 10
20660.80867530944
 20
10.449999809265137
 30
0.0
  0
VERTEX
  8
ondergrond2top_impermeable_layer_1
 10
20912.769756715654
 20
10.600000381469727
 30
0.0
  0
VERTEX
  8
ondergrond2top_impermeable_layer_1
 10
21164.730838121865
 20
11.140000343322754
 30
0.0
  0
VERTEX
  8
ondergrond2top_impermeable_layer_1
 10
21416.69191952808
 20
11.979999542236328
 30
0.0
  0
VERTEX
  8
ondergrond2top_impermeable_layer_1
 10
21668.65300093429
 20
12.0600004196167
 30
0.0
  0
VERTEX
  8
ondergrond2top_impermeable_layer_1
 10
21920.614082340504
 20
12.149999618530273
 30
0.0
  0
VERTEX
  8
ondergrond2top_impermeable_layer_1
 10
22172.575163746715
 20
12.279999732971191
 30
0.0
  0
VERTEX
  8
ondergrond2top_impermeable_layer_1
 10
22424.53624515293
 20
12.210000038146973
 30
0.0
  0
VERTEX
  8
ondergrond2top_impermeable_layer_1
 10
22676.497326559143
 20
11.470000267028809
 30
0.0
  0
VERTEX
  8
ondergrond2top_impermeable_layer_1
 10
22928.458407965354
 20
11.890000343322754
 30
0.0
  0
VERTEX
  8
ondergrond2top_impermeable_layer_1
 10
23180.41948937157
 20
11.920000076293945
 30
0.0
  0
VERTEX
  8
ondergrond2top_impermeable_layer_1
 10
23432.38057077778
 20
11.9399995803833
 30
0.0
  0
VERTEX
  8
ondergrond2top_impermeable_layer_1
 10
23684.341652183994
 20
12.949999809265137
 30
0.0
  0
VERTEX
  8
ondergrond2top_impermeable_layer_1
 10
23936.302733590204
 20
12.9399995803833
 30
0.0
  0
SEQEND
  0
POLYLINE
 62
7
  8
ondergrond2top_impermeable_layer_2
 66
1
 10
0.0
 20
0.0
 30
0.0
 70
8
  0
VERTEX
  8
ondergrond2top_impermeable_layer_2
 10
0.0
 20
1.5829757452011108
 30
0.0
  0
VERTEX
  8
ondergrond2top_impermeable_layer_2
 10
251.96108140621268
 20
2.035905361175537
 30
0.0
  0
VERTEX
  8
ondergrond2top_impermeable_layer_2
 10
503.92216281242537
 20
2.5864388942718506
 30
0.0
  0
VERTEX
  8
ondergrond2top_impermeable_layer_2
 10
755.8832442186381
 20
3.264763355255127
 30
0.0
  0
VERTEX
  8
ondergrond2top_impermeable_layer_2
 10
1007.8443256248507
 20
4.055161476135254
 30
0.0
  0
VERTEX
  8
ondergrond2top_impermeable_layer_2
 10
1259.8054070310634
 20
5.018601894378662
 30
0.0
  0
VERTEX
  8
ondergrond2top_impermeable_layer_2
 10
1511.7664884372762
 20
6.246011734008789
 30
0.0
  0
VERTEX
  8
ondergrond2top_impermeable_layer_2
 10
1763.7275698434887
 20
7.765777587890625
 30
0.0
  0
VERTEX
  8
ondergrond2top_impermeable_layer_2
 10
2015.6886512497015
 20
9.720545768737793
 30
0.0
  0
VERTEX
  8
ondergrond2top_impermeable_layer_2
 10
2267.6497326559142
 20
12.130000114440918
 30
0.0
  0
VERTEX
  8
ondergrond2top_impermeable_layer_2
 10
2519.610814062127
 20
15.094378471374512
 30
0.0
  0
VERTEX
  8
ondergrond2top_impermeable_layer_2
 10
2771.5718954683393
 20
18.79119873046875
 30
0.0
  0
VERTEX
  8
ondergrond2top_impermeable_layer_2
 10
3023.5329768745523
 20
22.925199508666992
 30
0.0
  0
VERTEX
  8
ondergrond2top_impermeable_layer_2
 10
3275.494058280765
 20
27.27298355102539
 30
0.0
  0
VERTEX
  8
ondergrond2top_impermeable_layer_2
 10
3527.4551396869774
 20
30.95527458190918
 30
0.0
  0
VERTEX
  8
ondergrond2top_impermeable_layer_2
 10
3779.4162210931904
 20
33.927310943603516
 30
0.0
  0
VERTEX
  8
ondergrond2top_impermeable_layer_2
 10
4031.377302499403
 20
35.87165832519531
 30
0.0
  0
VERTEX
  8
ondergrond2top_impermeable_layer_2
 10
4283.338383905616
 20
36.77981948852539
 30
0.0
  0
VERTEX
  8
ondergrond2top_impermeable_layer_2
 10
4535.2994653118285
 20
36.739566802978516
 30
0.0
  0
VERTEX
  8
ondergrond2top_impermeable_layer_2
 10
4787.260546718041
 20
35.79662322998047
 30
0.0
  0
VERTEX
  8
ondergrond2top_impermeable_layer_2
 10
5039.221628124254
 20
33.83925247192383
 30
0.0
  0
VERTEX
  8
ondergrond2top_impermeable_layer_2
 10
5291.182709530466
 20
31.06305694580078
 30
0.0
  0
VERTEX
  8
ondergrond2top_impermeable_layer_2
 10
5543.143790936679
 20
28.09050178527832
 30
0.0
  0
VERTEX
  8
ondergrond2top_impermeable_layer_2
 10
5795.104872342892
 20
24.90199851989746
 30
0.0
  0
VERTEX
  8
ondergrond2top_impermeable_layer_2
 10
6047.065953749105
 20
21.783077239990234
 30
0.0
  0
VERTEX
  8
ondergrond2top_impermeable_layer_2
 10
6299.027035155317
 20
18.87752342224121
 30
0.0
  0
VERTEX
  8
ondergrond2top_impermeable_layer_2
 10
6550.98811656153
 20
16.358489990234375
 30
0.0
  0
VERTEX
  8
ondergrond2top_impermeable_layer_2
 10
6802.949197967742
 20
14.298351287841797
 30
0.0
  0
VERTEX
  8
ondergrond2top_impermeable_layer_2
 10
7054.910279373955
 20
12.634957313537598
 30
0.0
  0
VERTEX
  8
ondergrond2top_impermeable_layer_2
 10
7306.871360780168
 20
11.271127700805664
 30
0.0
  0
VERTEX
  8
ondergrond2top_impermeable_layer_2
 10
7558.832442186381
 20
10.162914276123047
 30
0.0
  0
VERTEX
  8
ondergrond2top_impermeable_layer_2
 10
7810.793523592593
 20
9.286988258361816
 30
0.0
  0
VERTEX
  8
ondergrond2top_impermeable_layer_2
 10
8062.754604998806
 20
8.625044822692871
 30
0.0
  0
VERTEX
  8
ondergrond2top_impermeable_layer_2
 10
8314.71568640502
 20
8.168559074401855
 30
0.0
  0
VERTEX
  8
ondergrond2top_impermeable_layer_2
 10
8566.676767811232
 20
7.887861251831055
 30
0.0
  0
VERTEX
  8
ondergrond2top_impermeable_layer_2
 10
8818.637849217444
 20
7.76124382019043
 30
0.0
  0
VERTEX
  8
ondergrond2top_impermeable_layer_2
 10
9070.598930623657
 20
7.758246421813965
 30
0.0
  0
VERTEX
  8
ondergrond2top_impermeable_layer_2
 10
9322.56001202987
 20
7.845673561096191
 30
0.0
  0
VERTEX
  8
ondergrond2top_impermeable_layer_2
 10
9574.521093436082
 20
8.055150032043457
 30
0.0
  0
VERTEX
  8
ondergrond2top_impermeable_layer_2
 10
9826.482174842295
 20
8.485381126403809
 30
0.0
  0
VERTEX
  8
ondergrond2top_impermeable_layer_2
 10
10078.443256248507
 20
8.039999961853027
 30
0.0
  0
VERTEX
  8
ondergrond2top_impermeable_layer_2
 10
10330.40433765472
 20
8.59000015258789
 30
0.0
  0
VERTEX
  8
ondergrond2top_impermeable_layer_2
 10
10582.365419060932
 20
7.949999809265137
 30
0.0
  0
VERTEX
  8
ondergrond2top_impermeable_layer_2
 10
10834.326500467145
 20
7.260000228881836
 30
0.0
  0
VERTEX
  8
ondergrond2top_impermeable_layer_2
 10
11086.287581873357
 20
8.260000228881836
 30
0.0
  0
VERTEX
  8
ondergrond2top_impermeable_layer_2
 10
11338.248663279572
 20
8.210000038146973
 30
0.0
  0
VERTEX
  8
ondergrond2top_impermeable_layer_2
 10
11590.209744685784
 20
10.3100004196167
 30
0.0
  0
VERTEX
  8
ondergrond2top_impermeable_layer_2
 10
11842.170826091997
 20
8.31056022644043
 30
0.0
  0
VERTEX
  8
ondergrond2top_impermeable_layer_2
 10
12094.13190749821
 20
7.240704536437988
 30
0.0
  0
VERTEX
  8
ondergrond2top_impermeable_layer_2
 10
12346.092988904422
 20
6.63927698135376
 30
0.0
  0
VERTEX
  8
ondergrond2top_impermeable_layer_2
 10
12598.054070310634
 20
6.331400394439697
 30
0.0
  0
VERTEX
  8
ondergrond2top_impermeable_layer_2
 10
12850.015151716847
 20
6.219202995300293
 30
0.0
  0
VERTEX
  8
ondergrond2top_impermeable_layer_2
 10
13101.97623312306
 20
6.228626251220703
 30
0.0
  0
VERTEX
  8
ondergrond2top_impermeable_layer_2
 10
13353.937314529272
 20
6.316248893737793
 30
0.0
  0
VERTEX
  8
ondergrond2top_impermeable_layer_2
 10
13605.898395935485
 20
6.463532447814941
 30
0.0
  0
VERTEX
  8
ondergrond2top_impermeable_layer_2
 10
13857.859477341697
 20
6.884580612182617
 30
0.0
  0
VERTEX
  8
ondergrond2top_impermeable_layer_2
 10
14109.82055874791
 20
7.084856986999512
 30
0.0
  0
VERTEX
  8
ondergrond2top_impermeable_layer_2
 10
14361.781640154122
 20
7.188974857330322
 30
0.0
  0
VERTEX
  8
ondergrond2top_impermeable_layer_2
 10
14613.742721560337
 20
7.176177024841309
 30
0.0
  0
VERTEX
  8
ondergrond2top_impermeable_layer_2
 10
14865.70380296655
 20
7.0158891677856445
 30
0.0
  0
VERTEX
  8
ondergrond2top_impermeable_layer_2
 10
15117.664884372762
 20
6.712702751159668
 30
0.0
  0
VERTEX
  8
ondergrond2top_impermeable_layer_2
 10
15369.625965778974
 20
6.305656909942627
 30
0.0
  0
VERTEX
  8
ondergrond2top_impermeable_layer_2
 10
15621.587047185187
 20
5.77561616897583
 30
0.0
  0
VERTEX
  8
ondergrond2top_impermeable_layer_2
 10
15873.5481285914
 20
5.142756938934326
 30
0.0
  0
VERTEX
  8
ondergrond2top_impermeable_layer_2
 10
16125.509209997612
 20
4.354842662811279
 30
0.0
  0
VERTEX
  8
ondergrond2top_impermeable_layer_2
 10
16377.470291403824
 20
3.31298565864563
 30
0.0
  0
VERTEX
  8
ondergrond2top_impermeable_layer_2
 10
16629.43137281004
 20
1.8193249702453613
 30
0.0
  0
VERTEX
  8
ondergrond2top_impermeable_layer_2
 10
16881.39245421625
 20
-0.24476169049739838
 30
0.0
  0
VERTEX
  8
ondergrond2top_impermeable_layer_2
 10
17133.353535622464
 20
-3.087921142578125
 30
0.0
  0
VERTEX
  8
ondergrond2top_impermeable_layer_2
 10
17385.314617028675
 20
-6.880187511444092
 30
0.0
  0
VERTEX
  8
ondergrond2top_impermeable_layer_2
 10
17637.27569843489
 20
-11.566667556762695
 30
0.0
  0
VERTEX
  8
ondergrond2top_impermeable_layer_2
 10
17889.2367798411
 20
-15.6899995803833
 30
0.0
  0
VERTEX
  8
ondergrond2top_impermeable_layer_2
 10
18141.197861247314
 20
-7.474899768829346
 30
0.0
  0
VERTEX
  8
ondergrond2top_impermeable_layer_2
 10
18393.158942653525
 20
-2.435499429702759
 30
0.0
  0
VERTEX
  8
ondergrond2top_impermeable_layer_2
 10
18645.12002405974
 20
0.9998850226402283
 30
0.0
  0
VERTEX
  8
ondergrond2top_impermeable_layer_2
 10
18897.08110546595
 20
3.3043036460876465
 30
0.0
  0
VERTEX
  8
ondergrond2top_impermeable_layer_2
 10
19149.042186872164
 20
4.891094207763672
 30
0.0
  0
VERTEX
  8
ondergrond2top_impermeable_layer_2
 10
19401.00326827838
 20
6.010702610015869
 30
0.0
  0
VERTEX
  8
ondergrond2top_impermeable_layer_2
 10
19652.96434968459
 20
6.8226799964904785
 30
0.0
  0
VERTEX
  8
ondergrond2top_impermeable_layer_2
 10
19904.925431090804
 20
7.438099384307861
 30
0.0
  0
VERTEX
  8
ondergrond2top_impermeable_layer_2
 10
20156.886512497014
 20
7.921699047088623
 30
0.0
  0
VERTEX
  8
ondergrond2top_impermeable_layer_2
 10
20408.84759390323
 20
8.327692031860352
 30
0.0
  0
VERTEX
  8
ondergrond2top_impermeable_layer_2
 10
20660.80867530944
 20
8.700244903564453
 30
0.0
  0
VERTEX
  8
ondergrond2top_impermeable_layer_2
 10
20912.769756715654
 20
9.077058792114258
 30
0.0
  0
VERTEX
  8
ondergrond2top_impermeable_layer_2
 10
21164.730838121865
 20
9.460078239440918
 30
0.0
  0
VERTEX
  8
ondergrond2top_impermeable_layer_2
 10
21416.69191952808
 20
9.825615882873535
 30
0.0
  0
VERTEX
  8
ondergrond2top_impermeable_layer_2
 10
21668.65300093429
 20
10.144793510437012
 30
0.0
  0
VERTEX
  8
ondergrond2top_impermeable_layer_2
 10
21920.614082340504
 20
10.572111129760742
 30
0.0
  0
VERTEX
  8
ondergrond2top_impermeable_layer_2
 10
22172.575163746715
 20
10.79627799987793
 30
0.0
  0
VERTEX
  8
ondergrond2top_impermeable_layer_2
 10
22424.53624515293
 20
10.962895393371582
 30
0.0
  0
VERTEX
  8
ondergrond2top_impermeable_layer_2
 10
22676.497326559143
 20
11.082273483276367
 30
0.0
  0
VERTEX
  8
ondergrond2top_impermeable_layer_2
 10
22928.458407965354
 20
11.217041969299316
 30
0.0
  0
VERTEX
  8
ondergrond2top_impermeable_layer_2
 10
23180.41948937157
 20
11.388420104980469
 30
0.0
  0
VERTEX
  8
ondergrond2top_impermeable_layer_2
 10
23432.38057077778
 20
11.556103706359863
 30
0.0
  0
VERTEX
  8
ondergrond2top_impermeable_layer_2
 10
23684.341652183994
 20
11.764517784118652
 30
0.0
  0
VERTEX
  8
ondergrond2top_impermeable_layer_2
 10
23936.302733590204
 20
11.994339942932129
 30
0.0
  0
SEQEND
  0
POLYLINE
 62
7
  8
ondergrond2top_impermeable_layer_3
 66
1
 10
0.0
 20
0.0
 30
0.0
 70
8
  0
VERTEX
  8
ondergrond2top_impermeable_layer_3
 10
0.0
 20
-17.61374282836914
 30
0.0
  0
VERTEX
  8
ondergrond2top_impermeable_layer_3
 10
251.96108140621268
 20
-17.02693748474121
 30
0.0
  0
VERTEX
  8
ondergrond2top_impermeable_layer_3
 10
503.92216281242537
 20
-16.3465576171875
 30
0.0
  0
VERTEX
  8
ondergrond2top_impermeable_layer_3
 10
755.8832442186381
 20
-15.56478500366211
 30
0.0
  0
VERTEX
  8
ondergrond2top_impermeable_layer_3
 10
1007.8443256248507
 20
-14.703696250915527
 30
0.0
  0
VERTEX
  8
ondergrond2top_impermeable_layer_3
 10
1259.8054070310634
 20
-13.697900772094727
 30
0.0
  0
VERTEX
  8
ondergrond2top_impermeable_layer_3
 10
1511.7664884372762
 20
-12.464648246765137
 30
0.0
  0
VERTEX
  8
ondergrond2top_impermeable_layer_3
 10
1763.7275698434887
 20
-10.968897819519043
 30
0.0
  0
VERTEX
  8
ondergrond2top_impermeable_layer_3
 10
2015.6886512497015
 20
-9.08745002746582
 30
0.0
  0
VERTEX
  8
ondergrond2top_impermeable_layer_3
 10
2267.6497326559142
 20
-6.798997402191162
 30
0.0
  0
VERTEX
  8
ondergrond2top_impermeable_layer_3
 10
2519.610814062127
 20
-4.0279221534729
 30
0.0
  0
VERTEX
  8
ondergrond2top_impermeable_layer_3
 10
2771.5718954683393
 20
-0.6237015128135681
 30
0.0
  0
VERTEX
  8
ondergrond2top_impermeable_layer_3
 10
3023.5329768745523
 20
3.1575074195861816
 30
0.0
  0
VERTEX
  8
ondergrond2top_impermeable_layer_3
 10
3275.494058280765
 20
7.129048824310303
 30
0.0
  0
VERTEX
  8
ondergrond2top_impermeable_layer_3
 10
3527.4551396869774
 20
10.537696838378906
 30
0.0
  0
VERTEX
  8
ondergrond2top_impermeable_layer_3
 10
3779.4162210931904
 20
13.350333213806152
 30
0.0
  0
VERTEX
  8
ondergrond2top_impermeable_layer_3
 10
4031.377302499403
 20
15.299629211425781
 30
0.0
  0
VERTEX
  8
ondergrond2top_impermeable_layer_3
 10
4283.338383905616
 20
16.387676239013672
 30
0.0
  0
VERTEX
  8
ondergrond2top_impermeable_layer_3
 10
4535.2994653118285
 20
16.687332153320312
 30
0.0
  0
VERTEX
  8
ondergrond2top_impermeable_layer_3
 10
4787.260546718041
 20
16.24683380126953
 30
0.0
  0
VERTEX
  8
ondergrond2top_impermeable_layer_3
 10
5039.221628124254
 20
14.977991104125977
 30
0.0
  0
VERTEX
  8
ondergrond2top_impermeable_layer_3
 10
5291.182709530466
 20
13.061108589172363
 30
0.0
  0
VERTEX
  8
ondergrond2top_impermeable_layer_3
 10
5543.143790936679
 20
11.023529052734375
 30
0.0
  0
VERTEX
  8
ondergrond2top_impermeable_layer_3
 10
5795.104872342892
 20
8.863611221313477
 30
0.0
  0
VERTEX
  8
ondergrond2top_impermeable_layer_3
 10
6047.065953749105
 20
6.831111431121826
 30
0.0
  0
VERTEX
  8
ondergrond2top_impermeable_layer_3
 10
6299.027035155317
 20
5.060301303863525
 30
0.0
  0
VERTEX
  8
ondergrond2top_impermeable_layer_3
 10
6550.98811656153
 20
3.691754102706909
 30
0.0
  0
VERTEX
  8
ondergrond2top_impermeable_layer_3
 10
6802.949197967742
 20
2.7819466590881348
 30
0.0
  0
VERTEX
  8
ondergrond2top_impermeable_layer_3
 10
7054.910279373955
 20
0.9700000286102295
 30
0.0
  0
VERTEX
  8
ondergrond2top_impermeable_layer_3
 10
7306.871360780168
 20
0.8500000238418579
 30
0.0
  0
VERTEX
  8
ondergrond2top_impermeable_layer_3
 10
7558.832442186381
 20
0.7799999713897705
 30
0.0
  0
VERTEX
  8
ondergrond2top_impermeable_layer_3
 10
7810.793523592593
 20
0.8799999952316284
 30
0.0
  0
VERTEX
  8
ondergrond2top_impermeable_layer_3
 10
8062.754604998806
 20
1.0099999904632568
 30
0.0
  0
VERTEX
  8
ondergrond2top_impermeable_layer_3
 10
8314.71568640502
 20
0.9900000095367432
 30
0.0
  0
VERTEX
  8
ondergrond2top_impermeable_layer_3
 10
8566.676767811232
 20
1.1399999856948853
 30
0.0
  0
VERTEX
  8
ondergrond2top_impermeable_layer_3
 10
8818.637849217444
 20
1.1200000047683716
 30
0.0
  0
VERTEX
  8
ondergrond2top_impermeable_layer_3
 10
9070.598930623657
 20
1.1699999570846558
 30
0.0
  0
VERTEX
  8
ondergrond2top_impermeable_layer_3
 10
9322.56001202987
 20
1.2200000286102295
 30
0.0
  0
VERTEX
  8
ondergrond2top_impermeable_layer_3
 10
9574.521093436082
 20
1.0700000524520874
 30
0.0
  0
VERTEX
  8
ondergrond2top_impermeable_layer_3
 10
9826.482174842295
 20
0.9100000262260437
 30
0.0
  0
VERTEX
  8
ondergrond2top_impermeable_layer_3
 10
10078.443256248507
 20
2.654594898223877
 30
0.0
  0
VERTEX
  8
ondergrond2top_impermeable_layer_3
 10
10330.40433765472
 20
2.232295274734497
 30
0.0
  0
VERTEX
  8
ondergrond2top_impermeable_layer_3
 10
10582.365419060932
 20
1.8213491439819336
 30
0.0
  0
VERTEX
  8
ondergrond2top_impermeable_layer_3
 10
10834.326500467145
 20
-1.190000057220459
 30
0.0
  0
VERTEX
  8
ondergrond2top_impermeable_layer_3
 10
11086.287581873357
 20
-1.3300000429153442
 30
0.0
  0
VERTEX
  8
ondergrond2top_impermeable_layer_3
 10
11338.248663279572
 20
-2.009999990463257
 30
0.0
  0
VERTEX
  8
ondergrond2top_impermeable_layer_3
 10
11590.209744685784
 20
-2.4800000190734863
 30
0.0
  0
VERTEX
  8
ondergrond2top_impermeable_layer_3
 10
11842.170826091997
 20
-3.6600000858306885
 30
0.0
  0
VERTEX
  8
ondergrond2top_impermeable_layer_3
 10
12094.13190749821
 20
-4.050000190734863
 30
0.0
  0
VERTEX
  8
ondergrond2top_impermeable_layer_3
 10
12346.092988904422
 20
-4.619999885559082
 30
0.0
  0
VERTEX
  8
ondergrond2top_impermeable_layer_3
 10
12598.054070310634
 20
-5.070000171661377
 30
0.0
  0
VERTEX
  8
ondergrond2top_impermeable_layer_3
 10
12850.015151716847
 20
-5.03000020980835
 30
0.0
  0
VERTEX
  8
ondergrond2top_impermeable_layer_3
 10
13101.97623312306
 20
-4.289999961853027
 30
0.0
  0
VERTEX
  8
ondergrond2top_impermeable_layer_3
 10
13353.937314529272
 20
-2.9600000381469727
 30
0.0
  0
VERTEX
  8
ondergrond2top_impermeable_layer_3
 10
13605.898395935485
 20
-5.699999809265137
 30
0.0
  0
VERTEX
  8
ondergrond2top_impermeable_layer_3
 10
13857.859477341697
 20
-6.269999980926514
 30
0.0
  0
VERTEX
  8
ondergrond2top_impermeable_layer_3
 10
14109.82055874791
 20
-6.869999885559082
 30
0.0
  0
VERTEX
  8
ondergrond2top_impermeable_layer_3
 10
14361.781640154122
 20
-7.28000020980835
 30
0.0
  0
VERTEX
  8
ondergrond2top_impermeable_layer_3
 10
14613.742721560337
 20
-7.639999866485596
 30
0.0
  0
VERTEX
  8
ondergrond2top_impermeable_layer_3
 10
14865.70380296655
 20
-7.480000019073486
 30
0.0
  0
VERTEX
  8
ondergrond2top_impermeable_layer_3
 10
15117.664884372762
 20
-6.900000095367432
 30
0.0
  0
VERTEX
  8
ondergrond2top_impermeable_layer_3
 10
15369.625965778974
 20
-1.5700000524520874
 30
0.0
  0
VERTEX
  8
ondergrond2top_impermeable_layer_3
 10
15621.587047185187
 20
-0.550000011920929
 30
0.0
  0
VERTEX
  8
ondergrond2top_impermeable_layer_3
 10
15873.5481285914
 20
0.18000000715255737
 30
0.0
  0
VERTEX
  8
ondergrond2top_impermeable_layer_3
 10
16125.509209997612
 20
1.1891789436340332
 30
0.0
  0
VERTEX
  8
ondergrond2top_impermeable_layer_3
 10
16377.470291403824
 20
-0.2847253382205963
 30
0.0
  0
VERTEX
  8
ondergrond2top_impermeable_layer_3
 10
16629.43137281004
 20
-1.7968904972076416
 30
0.0
  0
VERTEX
  8
ondergrond2top_impermeable_layer_3
 10
16881.39245421625
 20
-3.6078245639801025
 30
0.0
  0
VERTEX
  8
ondergrond2top_impermeable_layer_3
 10
17133.353535622464
 20
-5.96216344833374
 30
0.0
  0
VERTEX
  8
ondergrond2top_impermeable_layer_3
 10
17385.314617028675
 20
-9.037537574768066
 30
0.0
  0
VERTEX
  8
ondergrond2top_impermeable_layer_3
 10
17637.27569843489
 20
-12.760904312133789
 30
0.0
  0
VERTEX
  8
ondergrond2top_impermeable_layer_3
 10
17889.2367798411
 20
-15.6899995803833
 30
0.0
  0
VERTEX
  8
ondergrond2top_impermeable_layer_3
 10
18141.197861247314
 20
-9.16049575805664
 30
0.0
  0
VERTEX
  8
ondergrond2top_impermeable_layer_3
 10
18393.158942653525
 20
-4.997693061828613
 30
0.0
  0
VERTEX
  8
ondergrond2top_impermeable_layer_3
 10
18645.12002405974
 20
-2.0879905223846436
 30
0.0
  0
VERTEX
  8
ondergrond2top_impermeable_layer_3
 10
18897.08110546595
 20
-0.09168930351734161
 30
0.0
  0
VERTEX
  8
ondergrond2top_impermeable_layer_3
 10
19149.042186872164
 20
1.3241022825241089
 30
0.0
  0
VERTEX
  8
ondergrond2top_impermeable_layer_3
 10
19401.00326827838
 20
2.361211061477661
 30
0.0
  0
VERTEX
  8
ondergrond2top_impermeable_layer_3
 10
19652.96434968459
 20
3.1541316509246826
 30
0.0
  0
VERTEX
  8
ondergrond2top_impermeable_layer_3
 10
19904.925431090804
 20
3.7997167110443115
 30
0.0
  0
VERTEX
  8
ondergrond2top_impermeable_layer_3
 10
20156.886512497014
 20
4.359289169311523
 30
0.0
  0
VERTEX
  8
ondergrond2top_impermeable_layer_3
 10
20408.84759390323
 20
4.876840114593506
 30
0.0
  0
VERTEX
  8
ondergrond2top_impermeable_layer_3
 10
20660.80867530944
 20
5.393582820892334
 30
0.0
  0
VERTEX
  8
ondergrond2top_impermeable_layer_3
 10
20912.769756715654
 20
5.942775726318359
 30
0.0
  0
VERTEX
  8
ondergrond2top_impermeable_layer_3
 10
21164.730838121865
 20
6.525961399078369
 30
0.0
  0
VERTEX
  8
ondergrond2top_impermeable_layer_3
 10
21416.69191952808
 20
7.1107869148254395
 30
0.0
  0
VERTEX
  8
ondergrond2top_impermeable_layer_3
 10
21668.65300093429
 20
7.674042701721191
 30
0.0
  0
VERTEX
  8
ondergrond2top_impermeable_layer_3
 10
21920.614082340504
 20
8.604079246520996
 30
0.0
  0
VERTEX
  8
ondergrond2top_impermeable_layer_3
 10
22172.575163746715
 20
9.06796646118164
 30
0.0
  0
VERTEX
  8
ondergrond2top_impermeable_layer_3
 10
22424.53624515293
 20
9.452564239501953
 30
0.0
  0
VERTEX
  8
ondergrond2top_impermeable_layer_3
 10
22676.497326559143
 20
9.764620780944824
 30
0.0
  0
VERTEX
  8
ondergrond2top_impermeable_layer_3
 10
22928.458407965354
 20
10.026972770690918
 30
0.0
  0
VERTEX
  8
ondergrond2top_impermeable_layer_3
 10
23180.41948937157
 20
10.230305671691895
 30
0.0
  0
VERTEX
  8
ondergrond2top_impermeable_layer_3
 10
23432.38057077778
 20
10.374397277832031
 30
0.0
  0
VERTEX
  8
ondergrond2top_impermeable_layer_3
 10
23684.341652183994
 20
10.487707138061523
 30
0.0
  0
VERTEX
  8
ondergrond2top_impermeable_layer_3
 10
23936.302733590204
 20
10.536383628845215
 30
0.0
  0
SEQEND
  0
POLYLINE
 62
7
  8
ondergrond2top_impermeable_layer_4
 66
1
 10
0.0
 20
0.0
 30
0.0
 70
8
  0
VERTEX
  8
ondergrond2top_impermeable_layer_4
 10
0.0
 20
-32.63431930541992
 30
0.0
  0
VERTEX
  8
ondergrond2top_impermeable_layer_4
 10
251.96108140621268
 20
-31.571523666381836
 30
0.0
  0
VERTEX
  8
ondergrond2top_impermeable_layer_4
 10
503.92216281242537
 20
-30.531278610229492
 30
0.0
  0
VERTEX
  8
ondergrond2top_impermeable_layer_4
 10
755.8832442186381
 20
-29.74017906188965
 30
0.0
  0
VERTEX
  8
ondergrond2top_impermeable_layer_4
 10
1007.8443256248507
 20
-29.248653411865234
 30
0.0
  0
VERTEX
  8
ondergrond2top_impermeable_layer_4
 10
1259.8054070310634
 20
-28.817293167114258
 30
0.0
  0
VERTEX
  8
ondergrond2top_impermeable_layer_4
 10
1511.7664884372762
 20
-28.232833862304688
 30
0.0
  0
VERTEX
  8
ondergrond2top_impermeable_layer_4
 10
1763.7275698434887
 20
-27.37250518798828
 30
0.0
  0
VERTEX
  8
ondergrond2top_impermeable_layer_4
 10
2015.6886512497015
 20
-26.095176696777344
 30
0.0
  0
VERTEX
  8
ondergrond2top_impermeable_layer_4
 10
2267.6497326559142
 20
-24.368000030517578
 30
0.0
  0
VERTEX
  8
ondergrond2top_impermeable_layer_4
 10
2519.610814062127
 20
-22.14512825012207
 30
0.0
  0
VERTEX
  8
ondergrond2top_impermeable_layer_4
 10
2771.5718954683393
 20
-19.315095901489258
 30
0.0
  0
VERTEX
  8
ondergrond2top_impermeable_layer_4
 10
3023.5329768745523
 20
-16.109176635742188
 30
0.0
  0
VERTEX
  8
ondergrond2top_impermeable_layer_4
 10
3275.494058280765
 20
-12.691237449645996
 30
0.0
  0
VERTEX
  8
ondergrond2top_impermeable_layer_4
 10
3527.4551396869774
 20
-9.701171875
 30
0.0
  0
VERTEX
  8
ondergrond2top_impermeable_layer_4
 10
3779.4162210931904
 20
-7.171713352203369
 30
0.0
  0
VERTEX
  8
ondergrond2top_impermeable_layer_4
 10
4031.377302499403
 20
-5.330105781555176
 30
0.0
  0
VERTEX
  8
ondergrond2top_impermeable_layer_4
 10
4283.338383905616
 20
-4.172749996185303
 30
0.0
  0
VERTEX
  8
ondergrond2top_impermeable_layer_4
 10
4535.2994653118285
 20
-3.65012788772583
 30
0.0
  0
VERTEX
  8
ondergrond2top_impermeable_layer_4
 10
4787.260546718041
 20
-3.7194108963012695
 30
0.0
  0
VERTEX
  8
ondergrond2top_impermeable_layer_4
 10
5039.221628124254
 20
-4.452577590942383
 30
0.0
  0
VERTEX
  8
ondergrond2top_impermeable_layer_4
 10
5291.182709530466
 20
-5.691017150878906
 30
0.0
  0
VERTEX
  8
ondergrond2top_impermeable_layer_4
 10
5543.143790936679
 20
-7.0070109367370605
 30
0.0
  0
VERTEX
  8
ondergrond2top_impermeable_layer_4
 10
5795.104872342892
 20
-8.385222434997559
 30
0.0
  0
VERTEX
  8
ondergrond2top_impermeable_layer_4
 10
6047.065953749105
 20
-9.606318473815918
 30
0.0
  0
VERTEX
  8
ondergrond2top_impermeable_layer_4
 10
6299.027035155317
 20
-10.529449462890625
 30
0.0
  0
VERTEX
  8
ondergrond2top_impermeable_layer_4
 10
6550.98811656153
 20
-11.012476921081543
 30
0.0
  0
VERTEX
  8
ondergrond2top_impermeable_layer_4
 10
6802.949197967742
 20
-10.947237968444824
 30
0.0
  0
VERTEX
  8
ondergrond2top_impermeable_layer_4
 10
7054.910279373955
 20
-10.278347969055176
 30
0.0
  0
VERTEX
  8
ondergrond2top_impermeable_layer_4
 10
7306.871360780168
 20
-9.731112480163574
 30
0.0
  0
VERTEX
  8
ondergrond2top_impermeable_layer_4
 10
7558.832442186381
 20
-9.220129013061523
 30
0.0
  0
VERTEX
  8
ondergrond2top_impermeable_layer_4
 10
7810.793523592593
 20
-8.807973861694336
 30
0.0
  0
VERTEX
  8
ondergrond2top_impermeable_layer_4
 10
8062.754604998806
 20
-8.501741409301758
 30
0.0
  0
VERTEX
  8
ondergrond2top_impermeable_layer_4
 10
8314.71568640502
 20
-8.282283782958984
 30
0.0
  0
VERTEX
  8
ondergrond2top_impermeable_layer_4
 10
8566.676767811232
 20
-8.137310981750488
 30
0.0
  0
VERTEX
  8
ondergrond2top_impermeable_layer_4
 10
8818.637849217444
 20
-8.062348365783691
 30
0.0
  0
VERTEX
  8
ondergrond2top_impermeable_layer_4
 10
9070.598930623657
 20
-8.061487197875977
 30
0.0
  0
VERTEX
  8
ondergrond2top_impermeable_layer_4
 10
9322.56001202987
 20
-8.138260841369629
 30
0.0
  0
VERTEX
  8
ondergrond2top_impermeable_layer_4
 10
9574.521093436082
 20
-8.298047065734863
 30
0.0
  0
VERTEX
  8
ondergrond2top_impermeable_layer_4
 10
9826.482174842295
 20
-8.524100303649902
 30
0.0
  0
VERTEX
  8
ondergrond2top_impermeable_layer_4
 10
10078.443256248507
 20
-8.793206214904785
 30
0.0
  0
VERTEX
  8
ondergrond2top_impermeable_layer_4
 10
10330.40433765472
 20
-8.913575172424316
 30
0.0
  0
VERTEX
  8
ondergrond2top_impermeable_layer_4
 10
10582.365419060932
 20
-8.973886489868164
 30
0.0
  0
VERTEX
  8
ondergrond2top_impermeable_layer_4
 10
10834.326500467145
 20
-8.93204402923584
 30
0.0
  0
VERTEX
  8
ondergrond2top_impermeable_layer_4
 10
11086.287581873357
 20
-8.918383598327637
 30
0.0
  0
VERTEX
  8
ondergrond2top_impermeable_layer_4
 10
11338.248663279572
 20
-8.930709838867188
 30
0.0
  0
VERTEX
  8
ondergrond2top_impermeable_layer_4
 10
11590.209744685784
 20
-8.958395004272461
 30
0.0
  0
VERTEX
  8
ondergrond2top_impermeable_layer_4
 10
11842.170826091997
 20
-9.007168769836426
 30
0.0
  0
VERTEX
  8
ondergrond2top_impermeable_layer_4
 10
12094.13190749821
 20
-9.021529197692871
 30
0.0
  0
VERTEX
  8
ondergrond2top_impermeable_layer_4
 10
12346.092988904422
 20
-8.99980354309082
 30
0.0
  0
VERTEX
  8
ondergrond2top_impermeable_layer_4
 10
12598.054070310634
 20
-8.924650192260742
 30
0.0
  0
VERTEX
  8
ondergrond2top_impermeable_layer_4
 10
12850.015151716847
 20
-8.780930519104004
 30
0.0
  0
VERTEX
  8
ondergrond2top_impermeable_layer_4
 10
13101.97623312306
 20
-8.621664047241211
 30
0.0
  0
VERTEX
  8
ondergrond2top_impermeable_layer_4
 10
13353.937314529272
 20
-8.53192138671875
 30
0.0
  0
VERTEX
  8
ondergrond2top_impermeable_layer_4
 10
13605.898395935485
 20
-8.653953552246094
 30
0.0
  0
VERTEX
  8
ondergrond2top_impermeable_layer_4
 10
13857.859477341697
 20
-8.845589637756348
 30
0.0
  0
VERTEX
  8
ondergrond2top_impermeable_layer_4
 10
14109.82055874791
 20
-8.918373107910156
 30
0.0
  0
VERTEX
  8
ondergrond2top_impermeable_layer_4
 10
14361.781640154122
 20
-8.943907737731934
 30
0.0
  0
VERTEX
  8
ondergrond2top_impermeable_layer_4
 10
14613.742721560337
 20
-8.861459732055664
 30
0.0
  0
VERTEX
  8
ondergrond2top_impermeable_layer_4
 10
14865.70380296655
 20
-8.543810844421387
 30
0.0
  0
VERTEX
  8
ondergrond2top_impermeable_layer_4
 10
15117.664884372762
 20
-7.994649887084961
 30
0.0
  0
VERTEX
  8
ondergrond2top_impermeable_layer_4
 10
15369.625965778974
 20
-7.289896011352539
 30
0.0
  0
VERTEX
  8
ondergrond2top_impermeable_layer_4
 10
15621.587047185187
 20
-6.837264537811279
 30
0.0
  0
VERTEX
  8
ondergrond2top_impermeable_layer_4
 10
15873.5481285914
 20
-6.614274024963379
 30
0.0
  0
VERTEX
  8
ondergrond2top_impermeable_layer_4
 10
16125.509209997612
 20
-6.674646377563477
 30
0.0
  0
VERTEX
  8
ondergrond2top_impermeable_layer_4
 10
16377.470291403824
 20
-6.8777031898498535
 30
0.0
  0
VERTEX
  8
ondergrond2top_impermeable_layer_4
 10
16629.43137281004
 20
-7.367840766906738
 30
0.0
  0
VERTEX
  8
ondergrond2top_impermeable_layer_4
 10
16881.39245421625
 20
-8.241737365722656
 30
0.0
  0
VERTEX
  8
ondergrond2top_impermeable_layer_4
 10
17133.353535622464
 20
-9.631157875061035
 30
0.0
  0
VERTEX
  8
ondergrond2top_impermeable_layer_4
 10
17385.314617028675
 20
-11.640226364135742
 30
0.0
  0
VERTEX
  8
ondergrond2top_impermeable_layer_4
 10
17637.27569843489
 20
-14.134878158569336
 30
0.0
  0
VERTEX
  8
ondergrond2top_impermeable_layer_4
 10
17889.2367798411
 20
-15.6899995803833
 30
0.0
  0
VERTEX
  8
ondergrond2top_impermeable_layer_4
 10
18141.197861247314
 20
-10.899336814880371
 30
0.0
  0
VERTEX
  8
ondergrond2top_impermeable_layer_4
 10
18393.158942653525
 20
-7.6290812492370605
 30
0.0
  0
VERTEX
  8
ondergrond2top_impermeable_layer_4
 10
18645.12002405974
 20
-5.250397682189941
 30
0.0
  0
VERTEX
  8
ondergrond2top_impermeable_layer_4
 10
18897.08110546595
 20
-3.5637881755828857
 30
0.0
  0
VERTEX
  8
ondergrond2top_impermeable_layer_4
 10
19149.042186872164
 20
-2.3188018798828125
 30
0.0
  0
VERTEX
  8
ondergrond2top_impermeable_layer_4
 10
19401.00326827838
 20
-1.3628708124160767
 30
0.0
  0
VERTEX
  8
ondergrond2top_impermeable_layer_4
 10
19652.96434968459
 20
-0.5867701768875122
 30
0.0
  0
VERTEX
  8
ondergrond2top_impermeable_layer_4
 10
19904.925431090804
 20
0.09207082539796829
 30
0.0
  0
VERTEX
  8
ondergrond2top_impermeable_layer_4
 10
20156.886512497014
 20
0.7315407395362854
 30
0.0
  0
VERTEX
  8
ondergrond2top_impermeable_layer_4
 10
20408.84759390323
 20
1.3653665781021118
 30
0.0
  0
VERTEX
  8
ondergrond2top_impermeable_layer_4
 10
20660.80867530944
 20
2.031705617904663
 30
0.0
  0
VERTEX
  8
ondergrond2top_impermeable_layer_4
 10
20912.769756715654
 20
2.7592008113861084
 30
0.0
  0
VERTEX
  8
ondergrond2top_impermeable_layer_4
 10
21164.730838121865
 20
3.5487494468688965
 30
0.0
  0
VERTEX
  8
ondergrond2top_impermeable_layer_4
 10
21416.69191952808
 20
4.359040260314941
 30
0.0
  0
VERTEX
  8
ondergrond2top_impermeable_layer_4
 10
21668.65300093429
 20
5.172181129455566
 30
0.0
  0
VERTEX
  8
ondergrond2top_impermeable_layer_4
 10
21920.614082340504
 20
6.5992021560668945
 30
0.0
  0
VERTEX
  8
ondergrond2top_impermeable_layer_4
 10
22172.575163746715
 20
7.300501346588135
 30
0.0
  0
VERTEX
  8
ondergrond2top_impermeable_layer_4
 10
22424.53624515293
 20
7.897741317749023
 30
0.0
  0
VERTEX
  8
ondergrond2top_impermeable_layer_4
 10
22676.497326559143
 20
8.39405345916748
 30
0.0
  0
VERTEX
  8
ondergrond2top_impermeable_layer_4
 10
22928.458407965354
 20
8.778020858764648
 30
0.0
  0
VERTEX
  8
ondergrond2top_impermeable_layer_4
 10
23180.41948937157
 20
9.054981231689453
 30
0.0
  0
VERTEX
  8
ondergrond2top_impermeable_layer_4
 10
23432.38057077778
 20
9.229921340942383
 30
0.0
  0
VERTEX
  8
ondergrond2top_impermeable_layer_4
 10
23684.341652183994
 20
9.32794189453125
 30
0.0
  0
VERTEX
  8
ondergrond2top_impermeable_layer_4
 10
23936.302733590204
 20
9.323806762695312
 30
0.0
  0
SEQEND
  0
POLYLINE
 62
7
  8
ondergrond2top_impermeable_layer_5
 66
1
 10
0.0
 20
0.0
 30
0.0
 70
8
  0
VERTEX
  8
ondergrond2top_impermeable_layer_5
 10
0.0
 20
-55.220428466796875
 30
0.0
  0
VERTEX
  8
ondergrond2top_impermeable_layer_5
 10
251.96108140621268
 20
-54.40477752685547
 30
0.0
  0
VERTEX
  8
ondergrond2top_impermeable_layer_5
 10
503.92216281242537
 20
-53.49838638305664
 30
0.0
  0
VERTEX
  8
ondergrond2top_impermeable_layer_5
 10
755.8832442186381
 20
-52.5560302734375
 30
0.0
  0
VERTEX
  8
ondergrond2top_impermeable_layer_5
 10
1007.8443256248507
 20
-51.61711120605469
 30
0.0
  0
VERTEX
  8
ondergrond2top_impermeable_layer_5
 10
1259.8054070310634
 20
-50.59954071044922
 30
0.0
  0
VERTEX
  8
ondergrond2top_impermeable_layer_5
 10
1511.7664884372762
 20
-49.42860412597656
 30
0.0
  0
VERTEX
  8
ondergrond2top_impermeable_layer_5
 10
1763.7275698434887
 20
-48.05107498168945
 30
0.0
  0
VERTEX
  8
ondergrond2top_impermeable_layer_5
 10
2015.6886512497015
 20
-46.38148498535156
 30
0.0
  0
VERTEX
  8
ondergrond2top_impermeable_layer_5
 10
2267.6497326559142
 20
-44.396934509277344
 30
0.0
  0
VERTEX
  8
ondergrond2top_impermeable_layer_5
 10
2519.610814062127
 20
-42.07437515258789
 30
0.0
  0
VERTEX
  8
ondergrond2top_impermeable_layer_5
 10
2771.5718954683393
 20
-39.32106399536133
 30
0.0
  0
VERTEX
  8
ondergrond2top_impermeable_layer_5
 10
3023.5329768745523
 20
-36.3182258605957
 30
0.0
  0
VERTEX
  8
ondergrond2top_impermeable_layer_5
 10
3275.494058280765
 20
-33.181373596191406
 30
0.0
  0
VERTEX
  8
ondergrond2top_impermeable_layer_5
 10
3527.4551396869774
 20
-30.413883209228516
 30
0.0
  0
VERTEX
  8
ondergrond2top_impermeable_layer_5
 10
3779.4162210931904
 20
-28.028854370117188
 30
0.0
  0
VERTEX
  8
ondergrond2top_impermeable_layer_5
 10
4031.377302499403
 20
-26.19857406616211
 30
0.0
  0
VERTEX
  8
ondergrond2top_impermeable_layer_5
 10
4283.338383905616
 20
-24.907245635986328
 30
0.0
  0
VERTEX
  8
ondergrond2top_impermeable_layer_5
 10
4535.2994653118285
 20
-24.121715545654297
 30
0.0
  0
VERTEX
  8
ondergrond2top_impermeable_layer_5
 10
4787.260546718041
 20
-23.8008975982666
 30
0.0
  0
VERTEX
  8
ondergrond2top_impermeable_layer_5
 10
5039.221628124254
 20
-24.000036239624023
 30
0.0
  0
VERTEX
  8
ondergrond2top_impermeable_layer_5
 10
5291.182709530466
 20
-24.584993362426758
 30
0.0
  0
VERTEX
  8
ondergrond2top_impermeable_layer_5
 10
5543.143790936679
 20
-25.23440170288086
 30
0.0
  0
VERTEX
  8
ondergrond2top_impermeable_layer_5
 10
5795.104872342892
 20
-25.927753448486328
 30
0.0
  0
VERTEX
  8
ondergrond2top_impermeable_layer_5
 10
6047.065953749105
 20
-26.49493408203125
 30
0.0
  0
VERTEX
  8
ondergrond2top_impermeable_layer_5
 10
6299.027035155317
 20
-26.817338943481445
 30
0.0
  0
VERTEX
  8
ondergrond2top_impermeable_layer_5
 10
6550.98811656153
 20
-26.795513153076172
 30
0.0
  0
VERTEX
  8
ondergrond2top_impermeable_layer_5
 10
6802.949197967742
 20
-26.342538833618164
 30
0.0
  0
VERTEX
  8
ondergrond2top_impermeable_layer_5
 10
7054.910279373955
 20
-25.42356300354004
 30
0.0
  0
VERTEX
  8
ondergrond2top_impermeable_layer_5
 10
7306.871360780168
 20
-24.59617805480957
 30
0.0
  0
VERTEX
  8
ondergrond2top_impermeable_layer_5
 10
7558.832442186381
 20
-23.809627532958984
 30
0.0
  0
VERTEX
  8
ondergrond2top_impermeable_layer_5
 10
7810.793523592593
 20
-23.10773277282715
 30
0.0
  0
VERTEX
  8
ondergrond2top_impermeable_layer_5
 10
8062.754604998806
 20
-22.50679588317871
 30
0.0
  0
VERTEX
  8
ondergrond2top_impermeable_layer_5
 10
8314.71568640502
 20
-21.985515594482422
 30
0.0
  0
VERTEX
  8
ondergrond2top_impermeable_layer_5
 10
8566.676767811232
 20
-21.54851531982422
 30
0.0
  0
VERTEX
  8
ondergrond2top_impermeable_layer_5
 10
8818.637849217444
 20
-21.18109893798828
 30
0.0
  0
VERTEX
  8
ondergrond2top_impermeable_layer_5
 10
9070.598930623657
 20
-20.89693260192871
 30
0.0
  0
VERTEX
  8
ondergrond2top_impermeable_layer_5
 10
9322.56001202987
 20
-20.69297981262207
 30
0.0
  0
VERTEX
  8
ondergrond2top_impermeable_layer_5
 10
9574.521093436082
 20
-20.579730987548828
 30
0.0
  0
VERTEX
  8
ondergrond2top_impermeable_layer_5
 10
9826.482174842295
 20
-20.538408279418945
 30
0.0
  0
VERTEX
  8
ondergrond2top_impermeable_layer_5
 10
10078.443256248507
 20
-20.544584274291992
 30
0.0
  0
VERTEX
  8
ondergrond2top_impermeable_layer_5
 10
10330.40433765472
 20
-20.441417694091797
 30
0.0
  0
VERTEX
  8
ondergrond2top_impermeable_layer_5
 10
10582.365419060932
 20
-20.300859451293945
 30
0.0
  0
VERTEX
  8
ondergrond2top_impermeable_layer_5
 10
10834.326500467145
 20
-20.07770538330078
 30
0.0
  0
VERTEX
  8
ondergrond2top_impermeable_layer_5
 10
11086.287581873357
 20
-19.870779037475586
 30
0.0
  0
VERTEX
  8
ondergrond2top_impermeable_layer_5
 10
11338.248663279572
 20
-19.67456817626953
 30
0.0
  0
VERTEX
  8
ondergrond2top_impermeable_layer_5
 10
11590.209744685784
 20
-19.479673385620117
 30
0.0
  0
VERTEX
  8
ondergrond2top_impermeable_layer_5
 10
11842.170826091997
 20
-19.28727912902832
 30
0.0
  0
VERTEX
  8
ondergrond2top_impermeable_layer_5
 10
12094.13190749821
 20
-19.051557540893555
 30
0.0
  0
VERTEX
  8
ondergrond2top_impermeable_layer_5
 10
12346.092988904422
 20
-18.76926040649414
 30
0.0
  0
VERTEX
  8
ondergrond2top_impermeable_layer_5
 10
12598.054070310634
 20
-18.432575225830078
 30
0.0
  0
VERTEX
  8
ondergrond2top_impermeable_layer_5
 10
12850.015151716847
 20
-18.018980026245117
 30
0.0
  0
VERTEX
  8
ondergrond2top_impermeable_layer_5
 10
13101.97623312306
 20
-17.580368041992188
 30
0.0
  0
VERTEX
  8
ondergrond2top_impermeable_layer_5
 10
13353.937314529272
 20
-17.179685592651367
 30
0.0
  0
VERTEX
  8
ondergrond2top_impermeable_layer_5
 10
13605.898395935485
 20
-16.930971145629883
 30
0.0
  0
VERTEX
  8
ondergrond2top_impermeable_layer_5
 10
13857.859477341697
 20
-16.34185028076172
 30
0.0
  0
VERTEX
  8
ondergrond2top_impermeable_layer_5
 10
14109.82055874791
 20
-16.010910034179688
 30
0.0
  0
VERTEX
  8
ondergrond2top_impermeable_layer_5
 10
14361.781640154122
 20
-15.639260292053223
 30
0.0
  0
VERTEX
  8
ondergrond2top_impermeable_layer_5
 10
14613.742721560337
 20
-15.198957443237305
 30
0.0
  0
VERTEX
  8
ondergrond2top_impermeable_layer_5
 10
14865.70380296655
 20
-14.663495063781738
 30
0.0
  0
VERTEX
  8
ondergrond2top_impermeable_layer_5
 10
15117.664884372762
 20
-14.015305519104004
 30
0.0
  0
VERTEX
  8
ondergrond2top_impermeable_layer_5
 10
15369.625965778974
 20
-13.262368202209473
 30
0.0
  0
VERTEX
  8
ondergrond2top_impermeable_layer_5
 10
15621.587047185187
 20
-12.688029289245605
 30
0.0
  0
VERTEX
  8
ondergrond2top_impermeable_layer_5
 10
15873.5481285914
 20
-12.260592460632324
 30
0.0
  0
VERTEX
  8
ondergrond2top_impermeable_layer_5
 10
16125.509209997612
 20
-12.014504432678223
 30
0.0
  0
VERTEX
  8
ondergrond2top_impermeable_layer_5
 10
16377.470291403824
 20
-11.851407051086426
 30
0.0
  0
VERTEX
  8
ondergrond2top_impermeable_layer_5
 10
16629.43137281004
 20
-11.88010025024414
 30
0.0
  0
VERTEX
  8
ondergrond2top_impermeable_layer_5
 10
16881.39245421625
 20
-12.187424659729004
 30
0.0
  0
VERTEX
  8
ondergrond2top_impermeable_layer_5
 10
17133.353535622464
 20
-12.869729995727539
 30
0.0
  0
VERTEX
  8
ondergrond2top_impermeable_layer_5
 10
17385.314617028675
 20
-14.001274108886719
 30
0.0
  0
VERTEX
  8
ondergrond2top_impermeable_layer_5
 10
17637.27569843489
 20
-15.411004066467285
 30
0.0
  0
VERTEX
  8
ondergrond2top_impermeable_layer_5
 10
17889.2367798411
 20
-15.6899995803833
 30
0.0
  0
VERTEX
  8
ondergrond2top_impermeable_layer_5
 10
18141.197861247314
 20
-12.613271713256836
 30
0.0
  0
VERTEX
  8
ondergrond2top_impermeable_layer_5
 10
18393.158942653525
 20
-10.229706764221191
 30
0.0
  0
VERTEX
  8
ondergrond2top_impermeable_layer_5
 10
18645.12002405974
 20
-8.380696296691895
 30
0.0
  0
VERTEX
  8
ondergrond2top_impermeable_layer_5
 10
18897.08110546595
 20
-7.003117084503174
 30
0.0
  0
VERTEX
  8
ondergrond2top_impermeable_layer_5
 10
19149.042186872164
 20
-5.927762985229492
 30
0.0
  0
VERTEX
  8
ondergrond2top_impermeable_layer_5
 10
19401.00326827838
 20
-5.050837516784668
 30
0.0
  0
VERTEX
  8
ondergrond2top_impermeable_layer_5
 10
19652.96434968459
 20
-4.288044452667236
 30
0.0
  0
VERTEX
  8
ondergrond2top_impermeable_layer_5
 10
19904.925431090804
 20
-3.57066011428833
 30
0.0
  0
VERTEX
  8
ondergrond2top_impermeable_layer_5
 10
20156.886512497014
 20
-2.8435521125793457
 30
0.0
  0
VERTEX
  8
ondergrond2top_impermeable_layer_5
 10
20408.84759390323
 20
-2.0821869373321533
 30
0.0
  0
VERTEX
  8
ondergrond2top_impermeable_layer_5
 10
20660.80867530944
 20
-1.249833345413208
 30
0.0
  0
VERTEX
  8
ondergrond2top_impermeable_layer_5
 10
20912.769756715654
 20
-0.320072203874588
 30
0.0
  0
VERTEX
  8
ondergrond2top_impermeable_layer_5
 10
21164.730838121865
 20
0.7107400298118591
 30
0.0
  0
VERTEX
  8
ondergrond2top_impermeable_layer_5
 10
21416.69191952808
 20
1.7969422340393066
 30
0.0
  0
VERTEX
  8
ondergrond2top_impermeable_layer_5
 10
21668.65300093429
 20
2.931913375854492
 30
0.0
  0
VERTEX
  8
ondergrond2top_impermeable_layer_5
 10
21920.614082340504
 20
5.036639213562012
 30
0.0
  0
VERTEX
  8
ondergrond2top_impermeable_layer_5
 10
22172.575163746715
 20
6.142539024353027
 30
0.0
  0
VERTEX
  8
ondergrond2top_impermeable_layer_5
 10
22424.53624515293
 20
7.110091209411621
 30
0.0
  0
VERTEX
  8
ondergrond2top_impermeable_layer_5
 10
22676.497326559143
 20
7.8198466300964355
 30
0.0
  0
VERTEX
  8
ondergrond2top_impermeable_layer_5
 10
22928.458407965354
 20
8.088709831237793
 30
0.0
  0
VERTEX
  8
ondergrond2top_impermeable_layer_5
 10
23180.41948937157
 20
8.214092254638672
 30
0.0
  0
VERTEX
  8
ondergrond2top_impermeable_layer_5
 10
23432.38057077778
 20
8.256348609924316
 30
0.0
  0
VERTEX
  8
ondergrond2top_impermeable_layer_5
 10
23684.341652183994
 20
8.221617698669434
 30
0.0
  0
VERTEX
  8
ondergrond2top_impermeable_layer_5
 10
23936.302733590204
 20
8.077532768249512
 30
0.0
  0
SEQEND
  0
POLYLINE
 62
7
  8
ondergrond2top_impermeable_layer_6
 66
1
 10
0.0
 20
0.0
 30
0.0
 70
8
  0
VERTEX
  8
ondergrond2top_impermeable_layer_6
 10
0.0
 20
-74.76024627685547
 30
0.0
  0
VERTEX
  8
ondergrond2top_impermeable_layer_6
 10
251.96108140621268
 20
-73.87407684326172
 30
0.0
  0
VERTEX
  8
ondergrond2top_impermeable_layer_6
 10
503.92216281242537
 20
-72.86439514160156
 30
0.0
  0
VERTEX
  8
ondergrond2top_impermeable_layer_6
 10
755.8832442186381
 20
-71.77295684814453
 30
0.0
  0
VERTEX
  8
ondergrond2top_impermeable_layer_6
 10
1007.8443256248507
 20
-70.63851165771484
 30
0.0
  0
VERTEX
  8
ondergrond2top_impermeable_layer_6
 10
1259.8054070310634
 20
-69.39749145507812
 30
0.0
  0
VERTEX
  8
ondergrond2top_impermeable_layer_6
 10
1511.7664884372762
 20
-68.00933074951172
 30
0.0
  0
VERTEX
  8
ondergrond2top_impermeable_layer_6
 10
1763.7275698434887
 20
-66.43465423583984
 30
0.0
  0
VERTEX
  8
ondergrond2top_impermeable_layer_6
 10
2015.6886512497015
 20
-64.6220932006836
 30
0.0
  0
VERTEX
  8
ondergrond2top_impermeable_layer_6
 10
2267.6497326559142
 20
-62.55815887451172
 30
0.0
  0
VERTEX
  8
ondergrond2top_impermeable_layer_6
 10
2519.610814062127
 20
-60.254085540771484
 30
0.0
  0
VERTEX
  8
ondergrond2top_impermeable_layer_6
 10
2771.5718954683393
 20
-57.65299606323242
 30
0.0
  0
VERTEX
  8
ondergrond2top_impermeable_layer_6
 10
3023.5329768745523
 20
-54.90382766723633
 30
0.0
  0
VERTEX
  8
ondergrond2top_impermeable_layer_6
 10
3275.494058280765
 20
-52.08854675292969
 30
0.0
  0
VERTEX
  8
ondergrond2top_impermeable_layer_6
 10
3527.4551396869774
 20
-49.58452224731445
 30
0.0
  0
VERTEX
  8
ondergrond2top_impermeable_layer_6
 10
3779.4162210931904
 20
-47.39191818237305
 30
0.0
  0
VERTEX
  8
ondergrond2top_impermeable_layer_6
 10
4031.377302499403
 20
-45.63212203979492
 30
0.0
  0
VERTEX
  8
ondergrond2top_impermeable_layer_6
 10
4283.338383905616
 20
-44.27932357788086
 30
0.0
  0
VERTEX
  8
ondergrond2top_impermeable_layer_6
 10
4535.2994653118285
 20
-43.31720733642578
 30
0.0
  0
VERTEX
  8
ondergrond2top_impermeable_layer_6
 10
4787.260546718041
 20
-42.704952239990234
 30
0.0
  0
VERTEX
  8
ondergrond2top_impermeable_layer_6
 10
5039.221628124254
 20
-42.47772979736328
 30
0.0
  0
VERTEX
  8
ondergrond2top_impermeable_layer_6
 10
5291.182709530466
 20
-42.52169418334961
 30
0.0
  0
VERTEX
  8
ondergrond2top_impermeable_layer_6
 10
5543.143790936679
 20
-42.61765670776367
 30
0.0
  0
VERTEX
  8
ondergrond2top_impermeable_layer_6
 10
5795.104872342892
 20
-42.73632049560547
 30
0.0
  0
VERTEX
  8
ondergrond2top_impermeable_layer_6
 10
6047.065953749105
 20
-42.75389862060547
 30
0.0
  0
VERTEX
  8
ondergrond2top_impermeable_layer_6
 10
6299.027035155317
 20
-42.571903228759766
 30
0.0
  0
VERTEX
  8
ondergrond2top_impermeable_layer_6
 10
6550.98811656153
 20
-42.13217544555664
 30
0.0
  0
VERTEX
  8
ondergrond2top_impermeable_layer_6
 10
6802.949197967742
 20
-41.368370056152344
 30
0.0
  0
VERTEX
  8
ondergrond2top_impermeable_layer_6
 10
7054.910279373955
 20
-40.26607131958008
 30
0.0
  0
VERTEX
  8
ondergrond2top_impermeable_layer_6
 10
7306.871360780168
 20
-39.21554946899414
 30
0.0
  0
VERTEX
  8
ondergrond2top_impermeable_layer_6
 10
7558.832442186381
 20
-38.201412200927734
 30
0.0
  0
VERTEX
  8
ondergrond2top_impermeable_layer_6
 10
7810.793523592593
 20
-37.249629974365234
 30
0.0
  0
VERTEX
  8
ondergrond2top_impermeable_layer_6
 10
8062.754604998806
 20
-36.386722564697266
 30
0.0
  0
VERTEX
  8
ondergrond2top_impermeable_layer_6
 10
8314.71568640502
 20
-35.590240478515625
 30
0.0
  0
VERTEX
  8
ondergrond2top_impermeable_layer_6
 10
8566.676767811232
 20
-34.882686614990234
 30
0.0
  0
VERTEX
  8
ondergrond2top_impermeable_layer_6
 10
8818.637849217444
 20
-34.240013122558594
 30
0.0
  0
VERTEX
  8
ondergrond2top_impermeable_layer_6
 10
9070.598930623657
 20
-33.686248779296875
 30
0.0
  0
VERTEX
  8
ondergrond2top_impermeable_layer_6
 10
9322.56001202987
 20
-33.212459564208984
 30
0.0
  0
VERTEX
  8
ondergrond2top_impermeable_layer_6
 10
9574.521093436082
 20
-32.83483123779297
 30
0.0
  0
VERTEX
  8
ondergrond2top_impermeable_layer_6
 10
9826.482174842295
 20
-32.53304672241211
 30
0.0
  0
VERTEX
  8
ondergrond2top_impermeable_layer_6
 10
10078.443256248507
 20
-32.281883239746094
 30
0.0
  0
VERTEX
  8
ondergrond2top_impermeable_layer_6
 10
10330.40433765472
 20
-31.95980453491211
 30
0.0
  0
VERTEX
  8
ondergrond2top_impermeable_layer_6
 10
10582.365419060932
 20
-31.622344970703125
 30
0.0
  0
VERTEX
  8
ondergrond2top_impermeable_layer_6
 10
10834.326500467145
 20
-31.221467971801758
 30
0.0
  0
VERTEX
  8
ondergrond2top_impermeable_layer_6
 10
11086.287581873357
 20
-30.82474136352539
 30
0.0
  0
VERTEX
  8
ondergrond2top_impermeable_layer_6
 10
11338.248663279572
 20
-30.423603057861328
 30
0.0
  0
VERTEX
  8
ondergrond2top_impermeable_layer_6
 10
11590.209744685784
 20
-30.010160446166992
 30
0.0
  0
VERTEX
  8
ondergrond2top_impermeable_layer_6
 10
11842.170826091997
 20
-29.581371307373047
 30
0.0
  0
VERTEX
  8
ondergrond2top_impermeable_layer_6
 10
12094.13190749821
 20
-29.10147476196289
 30
0.0
  0
VERTEX
  8
ondergrond2top_impermeable_layer_6
 10
12346.092988904422
 20
-28.566165924072266
 30
0.0
  0
VERTEX
  8
ondergrond2top_impermeable_layer_6
 10
12598.054070310634
 20
-27.977859497070312
 30
0.0
  0
VERTEX
  8
ondergrond2top_impermeable_layer_6
 10
12850.015151716847
 20
-27.307621002197266
 30
0.0
  0
VERTEX
  8
ondergrond2top_impermeable_layer_6
 10
13101.97623312306
 20
-26.607620239257812
 30
0.0
  0
VERTEX
  8
ondergrond2top_impermeable_layer_6
 10
13353.937314529272
 20
-25.920690536499023
 30
0.0
  0
VERTEX
  8
ondergrond2top_impermeable_layer_6
 10
13605.898395935485
 20
-25.335552215576172
 30
0.0
  0
VERTEX
  8
ondergrond2top_impermeable_layer_6
 10
13857.859477341697
 20
-24.080219268798828
 30
0.0
  0
VERTEX
  8
ondergrond2top_impermeable_layer_6
 10
14109.82055874791
 20
-23.435043334960938
 30
0.0
  0
VERTEX
  8
ondergrond2top_impermeable_layer_6
 10
14361.781640154122
 20
-22.77527618408203
 30
0.0
  0
VERTEX
  8
ondergrond2top_impermeable_layer_6
 10
14613.742721560337
 20
-22.075008392333984
 30
0.0
  0
VERTEX
  8
ondergrond2top_impermeable_layer_6
 10
14865.70380296655
 20
-21.320446014404297
 30
0.0
  0
VERTEX
  8
ondergrond2top_impermeable_layer_6
 10
15117.664884372762
 20
-20.48843002319336
 30
0.0
  0
VERTEX
  8
ondergrond2top_impermeable_layer_6
 10
15369.625965778974
 20
-19.58616828918457
 30
0.0
  0
VERTEX
  8
ondergrond2top_impermeable_layer_6
 10
15621.587047185187
 20
-18.802370071411133
 30
0.0
  0
VERTEX
  8
ondergrond2top_impermeable_layer_6
 10
15873.5481285914
 20
-18.1033992767334
 30
0.0
  0
VERTEX
  8
ondergrond2top_impermeable_layer_6
 10
16125.509209997612
 20
-17.503379821777344
 30
0.0
  0
VERTEX
  8
ondergrond2top_impermeable_layer_6
 10
16377.470291403824
 20
-16.943471908569336
 30
0.0
  0
VERTEX
  8
ondergrond2top_impermeable_layer_6
 10
16629.43137281004
 20
-16.494979858398438
 30
0.0
  0
VERTEX
  8
ondergrond2top_impermeable_layer_6
 10
16881.39245421625
 20
-16.23551368713379
 30
0.0
  0
VERTEX
  8
ondergrond2top_impermeable_layer_6
 10
17133.353535622464
 20
-16.232227325439453
 30
0.0
  0
VERTEX
  8
ondergrond2top_impermeable_layer_6
 10
17385.314617028675
 20
-16.552412033081055
 30
0.0
  0
VERTEX
  8
ondergrond2top_impermeable_layer_6
 10
17637.27569843489
 20
-17.074443817138672
 30
0.0
  0
VERTEX
  8
ondergrond2top_impermeable_layer_6
 10
17889.2367798411
 20
-16.778169631958008
 30
0.0
  0
VERTEX
  8
ondergrond2top_impermeable_layer_6
 10
18141.197861247314
 20
-14.760676383972168
 30
0.0
  0
VERTEX
  8
ondergrond2top_impermeable_layer_6
 10
18393.158942653525
 20
-13.045650482177734
 30
0.0
  0
VERTEX
  8
ondergrond2top_impermeable_layer_6
 10
18645.12002405974
 20
-11.63304328918457
 30
0.0
  0
VERTEX
  8
ondergrond2top_impermeable_layer_6
 10
18897.08110546595
 20
-10.515978813171387
 30
0.0
  0
VERTEX
  8
ondergrond2top_impermeable_layer_6
 10
19149.042186872164
 20
-9.581371307373047
 30
0.0
  0
VERTEX
  8
ondergrond2top_impermeable_layer_6
 10
19401.00326827838
 20
-8.764415740966797
 30
0.0
  0
VERTEX
  8
ondergrond2top_impermeable_layer_6
 10
19652.96434968459
 20
-8.001077651977539
 30
0.0
  0
VERTEX
  8
ondergrond2top_impermeable_layer_6
 10
19904.925431090804
 20
-7.233833312988281
 30
0.0
  0
VERTEX
  8
ondergrond2top_impermeable_layer_6
 10
20156.886512497014
 20
-6.40854024887085
 30
0.0
  0
VERTEX
  8
ondergrond2top_impermeable_layer_6
 10
20408.84759390323
 20
-5.508487701416016
 30
0.0
  0
VERTEX
  8
ondergrond2top_impermeable_layer_6
 10
20660.80867530944
 20
-4.497149467468262
 30
0.0
  0
VERTEX
  8
ondergrond2top_impermeable_layer_6
 10
20912.769756715654
 20
-3.349141836166382
 30
0.0
  0
VERTEX
  8
ondergrond2top_impermeable_layer_6
 10
21164.730838121865
 20
-2.056900978088379
 30
0.0
  0
VERTEX
  8
ondergrond2top_impermeable_layer_6
 10
21416.69191952808
 20
-0.6693516969680786
 30
0.0
  0
VERTEX
  8
ondergrond2top_impermeable_layer_6
 10
21668.65300093429
 20
0.8190440535545349
 30
0.0
  0
VERTEX
  8
ondergrond2top_impermeable_layer_6
 10
21920.614082340504
 20
3.670199155807495
 30
0.0
  0
VERTEX
  8
ondergrond2top_impermeable_layer_6
 10
22172.575163746715
 20
5.236382961273193
 30
0.0
  0
VERTEX
  8
ondergrond2top_impermeable_layer_6
 10
22424.53624515293
 20
6.664205551147461
 30
0.0
  0
VERTEX
  8
ondergrond2top_impermeable_layer_6
 10
22676.497326559143
 20
7.769388675689697
 30
0.0
  0
VERTEX
  8
ondergrond2top_impermeable_layer_6
 10
22928.458407965354
 20
7.910206317901611
 30
0.0
  0
VERTEX
  8
ondergrond2top_impermeable_layer_6
 10
23180.41948937157
 20
7.862407207489014
 30
0.0
  0
VERTEX
  8
ondergrond2top_impermeable_layer_6
 10
23432.38057077778
 20
7.679957389831543
 30
0.0
  0
VERTEX
  8
ondergrond2top_impermeable_layer_6
 10
23684.341652183994
 20
7.439072608947754
 30
0.0
  0
VERTEX
  8
ondergrond2top_impermeable_layer_6
 10
23936.302733590204
 20
7.115202903747559
 30
0.0
  0
SEQEND
  0
POLYLINE
 62
7
  8
ondergrond2top_impermeable_layer_7
 66
1
 10
0.0
 20
0.0
 30
0.0
 70
8
  0
VERTEX
  8
ondergrond2top_impermeable_layer_7
 10
0.0
 20
-96.341552734375
 30
0.0
  0
VERTEX
  8
ondergrond2top_impermeable_layer_7
 10
251.96108140621268
 20
-95.25230407714844
 30
0.0
  0
VERTEX
  8
ondergrond2top_impermeable_layer_7
 10
503.92216281242537
 20
-94.08304595947266
 30
0.0
  0
VERTEX
  8
ondergrond2top_impermeable_layer_7
 10
755.8832442186381
 20
-92.8510513305664
 30
0.0
  0
VERTEX
  8
ondergrond2top_impermeable_layer_7
 10
1007.8443256248507
 20
-91.58489227294922
 30
0.0
  0
VERTEX
  8
ondergrond2top_impermeable_layer_7
 10
1259.8054070310634
 20
-90.2313232421875
 30
0.0
  0
VERTEX
  8
ondergrond2top_impermeable_layer_7
 10
1511.7664884372762
 20
-88.77593231201172
 30
0.0
  0
VERTEX
  8
ondergrond2top_impermeable_layer_7
 10
1763.7275698434887
 20
-87.18390655517578
 30
0.0
  0
VERTEX
  8
ondergrond2top_impermeable_layer_7
 10
2015.6886512497015
 20
-85.4255599975586
 30
0.0
  0
VERTEX
  8
ondergrond2top_impermeable_layer_7
 10
2267.6497326559142
 20
-83.48026275634766
 30
0.0
  0
VERTEX
  8
ondergrond2top_impermeable_layer_7
 10
2519.610814062127
 20
-81.3731460571289
 30
0.0
  0
VERTEX
  8
ondergrond2top_impermeable_layer_7
 10
2771.5718954683393
 20
-79.06217956542969
 30
0.0
  0
VERTEX
  8
ondergrond2top_impermeable_layer_7
 10
3023.5329768745523
 20
-76.64813232421875
 30
0.0
  0
VERTEX
  8
ondergrond2top_impermeable_layer_7
 10
3275.494058280765
 20
-74.17359924316406
 30
0.0
  0
VERTEX
  8
ondergrond2top_impermeable_layer_7
 10
3527.4551396869774
 20
-71.89328002929688
 30
0.0
  0
VERTEX
  8
ondergrond2top_impermeable_layer_7
 10
3779.4162210931904
 20
-69.80252838134766
 30
0.0
  0
VERTEX
  8
ondergrond2top_impermeable_layer_7
 10
4031.377302499403
 20
-67.98069763183594
 30
0.0
  0
VERTEX
  8
ondergrond2top_impermeable_layer_7
 10
4283.338383905616
 20
-66.39960479736328
 30
0.0
  0
VERTEX
  8
ondergrond2top_impermeable_layer_7
 10
4535.2994653118285
 20
-65.06633758544922
 30
0.0
  0
VERTEX
  8
ondergrond2top_impermeable_layer_7
 10
4787.260546718041
 20
-63.94721984863281
 30
0.0
  0
VERTEX
  8
ondergrond2top_impermeable_layer_7
 10
5039.221628124254
 20
-63.0654182434082
 30
0.0
  0
VERTEX
  8
ondergrond2top_impermeable_layer_7
 10
5291.182709530466
 20
-62.33570098876953
 30
0.0
  0
VERTEX
  8
ondergrond2top_impermeable_layer_7
 10
5543.143790936679
 20
-61.64865493774414
 30
0.0
  0
VERTEX
  8
ondergrond2top_impermeable_layer_7
 10
5795.104872342892
 20
-60.972476959228516
 30
0.0
  0
VERTEX
  8
ondergrond2top_impermeable_layer_7
 10
6047.065953749105
 20
-60.2345085144043
 30
0.0
  0
VERTEX
  8
ondergrond2top_impermeable_layer_7
 10
6299.027035155317
 20
-59.35972595214844
 30
0.0
  0
VERTEX
  8
ondergrond2top_impermeable_layer_7
 10
6550.98811656153
 20
-58.33326721191406
 30
0.0
  0
VERTEX
  8
ondergrond2top_impermeable_layer_7
 10
6802.949197967742
 20
-57.110107421875
 30
0.0
  0
VERTEX
  8
ondergrond2top_impermeable_layer_7
 10
7054.910279373955
 20
-55.69600296020508
 30
0.0
  0
VERTEX
  8
ondergrond2top_impermeable_layer_7
 10
7306.871360780168
 20
-54.3128547668457
 30
0.0
  0
VERTEX
  8
ondergrond2top_impermeable_layer_7
 10
7558.832442186381
 20
-52.97906494140625
 30
0.0
  0
VERTEX
  8
ondergrond2top_impermeable_layer_7
 10
7810.793523592593
 20
-51.70090103149414
 30
0.0
  0
VERTEX
  8
ondergrond2top_impermeable_layer_7
 10
8062.754604998806
 20
-50.51311492919922
 30
0.0
  0
VERTEX
  8
ondergrond2top_impermeable_layer_7
 10
8314.71568640502
 20
-49.39018630981445
 30
0.0
  0
VERTEX
  8
ondergrond2top_impermeable_layer_7
 10
8566.676767811232
 20
-48.37066650390625
 30
0.0
  0
VERTEX
  8
ondergrond2top_impermeable_layer_7
 10
8818.637849217444
 20
-47.419532775878906
 30
0.0
  0
VERTEX
  8
ondergrond2top_impermeable_layer_7
 10
9070.598930623657
 20
-46.56970977783203
 30
0.0
  0
VERTEX
  8
ondergrond2top_impermeable_layer_7
 10
9322.56001202987
 20
-45.80513381958008
 30
0.0
  0
VERTEX
  8
ondergrond2top_impermeable_layer_7
 10
9574.521093436082
 20
-45.146629333496094
 30
0.0
  0
VERTEX
  8
ondergrond2top_impermeable_layer_7
 10
9826.482174842295
 20
-44.57145309448242
 30
0.0
  0
VERTEX
  8
ondergrond2top_impermeable_layer_7
 10
10078.443256248507
 20
-44.05286407470703
 30
0.0
  0
VERTEX
  8
ondergrond2top_impermeable_layer_7
 10
10330.40433765472
 20
-43.5040397644043
 30
0.0
  0
VERTEX
  8
ondergrond2top_impermeable_layer_7
 10
10582.365419060932
 20
-42.96361541748047
 30
0.0
  0
VERTEX
  8
ondergrond2top_impermeable_layer_7
 10
10834.326500467145
 20
-42.38033676147461
 30
0.0
  0
VERTEX
  8
ondergrond2top_impermeable_layer_7
 10
11086.287581873357
 20
-41.79022216796875
 30
0.0
  0
VERTEX
  8
ondergrond2top_impermeable_layer_7
 10
11338.248663279572
 20
-41.1814079284668
 30
0.0
  0
VERTEX
  8
ondergrond2top_impermeable_layer_7
 10
11590.209744685784
 20
-40.54731369018555
 30
0.0
  0
VERTEX
  8
ondergrond2top_impermeable_layer_7
 10
11842.170826091997
 20
-39.88053512573242
 30
0.0
  0
VERTEX
  8
ondergrond2top_impermeable_layer_7
 10
12094.13190749821
 20
-39.15526580810547
 30
0.0
  0
VERTEX
  8
ondergrond2top_impermeable_layer_7
 10
12346.092988904422
 20
-38.36604309082031
 30
0.0
  0
VERTEX
  8
ondergrond2top_impermeable_layer_7
 10
12598.054070310634
 20
-37.525455474853516
 30
0.0
  0
VERTEX
  8
ondergrond2top_impermeable_layer_7
 10
12850.015151716847
 20
-36.59809875488281
 30
0.0
  0
VERTEX
  8
ondergrond2top_impermeable_layer_7
 10
13101.97623312306
 20
-35.636390686035156
 30
0.0
  0
VERTEX
  8
ondergrond2top_impermeable_layer_7
 10
13353.937314529272
 20
-34.663028717041016
 30
0.0
  0
VERTEX
  8
ondergrond2top_impermeable_layer_7
 10
13605.898395935485
 20
-33.74140548706055
 30
0.0
  0
VERTEX
  8
ondergrond2top_impermeable_layer_7
 10
13857.859477341697
 20
-31.82012939453125
 30
0.0
  0
VERTEX
  8
ondergrond2top_impermeable_layer_7
 10
14109.82055874791
 20
-30.8610897064209
 30
0.0
  0
VERTEX
  8
ondergrond2top_impermeable_layer_7
 10
14361.781640154122
 20
-29.913795471191406
 30
0.0
  0
VERTEX
  8
ondergrond2top_impermeable_layer_7
 10
14613.742721560337
 20
-28.954448699951172
 30
0.0
  0
VERTEX
  8
ondergrond2top_impermeable_layer_7
 10
14865.70380296655
 20
-27.982086181640625
 30
0.0
  0
VERTEX
  8
ondergrond2top_impermeable_layer_7
 10
15117.664884372762
 20
-26.968111038208008
 30
0.0
  0
VERTEX
  8
ondergrond2top_impermeable_layer_7
 10
15369.625965778974
 20
-25.919198989868164
 30
0.0
  0
VERTEX
  8
ondergrond2top_impermeable_layer_7
 10
15621.587047185187
 20
-24.92976188659668
 30
0.0
  0
VERTEX
  8
ondergrond2top_impermeable_layer_7
 10
15873.5481285914
 20
-23.96468734741211
 30
0.0
  0
VERTEX
  8
ondergrond2top_impermeable_layer_7
 10
16125.509209997612
 20
-23.01842498779297
 30
0.0
  0
VERTEX
  8
ondergrond2top_impermeable_layer_7
 10
16377.470291403824
 20
-22.072477340698242
 30
0.0
  0
VERTEX
  8
ondergrond2top_impermeable_layer_7
 10
16629.43137281004
 20
-21.16164207458496
 30
0.0
  0
VERTEX
  8
ondergrond2top_impermeable_layer_7
 10
16881.39245421625
 20
-20.355419158935547
 30
0.0
  0
VERTEX
  8
ondergrond2top_impermeable_layer_7
 10
17133.353535622464
 20
-19.69357681274414
 30
0.0
  0
VERTEX
  8
ondergrond2top_impermeable_layer_7
 10
17385.314617028675
 20
-19.24439239501953
 30
0.0
  0
VERTEX
  8
ondergrond2top_impermeable_layer_7
 10
17637.27569843489
 20
-18.98295021057129
 30
0.0
  0
VERTEX
  8
ondergrond2top_impermeable_layer_7
 10
17889.2367798411
 20
-18.536014556884766
 30
0.0
  0
VERTEX
  8
ondergrond2top_impermeable_layer_7
 10
18141.197861247314
 20
-17.175392150878906
 30
0.0
  0
VERTEX
  8
ondergrond2top_impermeable_layer_7
 10
18393.158942653525
 20
-15.994876861572266
 30
0.0
  0
VERTEX
  8
ondergrond2top_impermeable_layer_7
 10
18645.12002405974
 20
-14.961263656616211
 30
0.0
  0
VERTEX
  8
ondergrond2top_impermeable_layer_7
 10
18897.08110546595
 20
-14.07469654083252
 30
0.0
  0
VERTEX
  8
ondergrond2top_impermeable_layer_7
 10
19149.042186872164
 20
-13.26282787322998
 30
0.0
  0
VERTEX
  8
ondergrond2top_impermeable_layer_7
 10
19401.00326827838
 20
-12.493887901306152
 30
0.0
  0
VERTEX
  8
ondergrond2top_impermeable_layer_7
 10
19652.96434968459
 20
-11.721275329589844
 30
0.0
  0
VERTEX
  8
ondergrond2top_impermeable_layer_7
 10
19904.925431090804
 20
-10.89708137512207
 30
0.0
  0
VERTEX
  8
ondergrond2top_impermeable_layer_7
 10
20156.886512497014
 20
-9.96714973449707
 30
0.0
  0
VERTEX
  8
ondergrond2top_impermeable_layer_7
 10
20408.84759390323
 20
-8.921900749206543
 30
0.0
  0
VERTEX
  8
ondergrond2top_impermeable_layer_7
 10
20660.80867530944
 20
-7.724545001983643
 30
0.0
  0
VERTEX
  8
ondergrond2top_impermeable_layer_7
 10
20912.769756715654
 20
-6.35051155090332
 30
0.0
  0
VERTEX
  8
ondergrond2top_impermeable_layer_7
 10
21164.730838121865
 20
-4.788474082946777
 30
0.0
  0
VERTEX
  8
ondergrond2top_impermeable_layer_7
 10
21416.69191952808
 20
-3.091376781463623
 30
0.0
  0
VERTEX
  8
ondergrond2top_impermeable_layer_7
 10
21668.65300093429
 20
-1.2430464029312134
 30
0.0
  0
VERTEX
  8
ondergrond2top_impermeable_layer_7
 10
21920.614082340504
 20
2.363217353820801
 30
0.0
  0
VERTEX
  8
ondergrond2top_impermeable_layer_7
 10
22172.575163746715
 20
4.373106002807617
 30
0.0
  0
VERTEX
  8
ondergrond2top_impermeable_layer_7
 10
22424.53624515293
 20
6.251688480377197
 30
0.0
  0
VERTEX
  8
ondergrond2top_impermeable_layer_7
 10
22676.497326559143
 20
7.768756866455078
 30
0.0
  0
VERTEX
  8
ondergrond2top_impermeable_layer_7
 10
22928.458407965354
 20
7.824882984161377
 30
0.0
  0
VERTEX
  8
ondergrond2top_impermeable_layer_7
 10
23180.41948937157
 20
7.7324604988098145
 30
0.0
  0
VERTEX
  8
ondergrond2top_impermeable_layer_7
 10
23432.38057077778
 20
7.519948482513428
 30
0.0
  0
VERTEX
  8
ondergrond2top_impermeable_layer_7
 10
23684.341652183994
 20
7.209385395050049
 30
0.0
  0
VERTEX
  8
ondergrond2top_impermeable_layer_7
 10
23936.302733590204
 20
6.545551776885986
 30
0.0
  0
SEQEND
  0
POLYLINE
 62
7
  8
ondergrond2top_impermeable_layer_8
 66
1
 10
0.0
 20
0.0
 30
0.0
 70
8
  0
VERTEX
  8
ondergrond2top_impermeable_layer_8
 10
0.0
 20
-117.38052368164062
 30
0.0
  0
VERTEX
  8
ondergrond2top_impermeable_layer_8
 10
251.96108140621268
 20
-116.11823272705078
 30
0.0
  0
VERTEX
  8
ondergrond2top_impermeable_layer_8
 10
503.92216281242537
 20
-114.7999267578125
 30
0.0
  0
VERTEX
  8
ondergrond2top_impermeable_layer_8
 10
755.8832442186381
 20
-113.4221420288086
 30
0.0
  0
VERTEX
  8
ondergrond2top_impermeable_layer_8
 10
1007.8443256248507
 20
-112.00666046142578
 30
0.0
  0
VERTEX
  8
ondergrond2top_impermeable_layer_8
 10
1259.8054070310634
 20
-110.51374053955078
 30
0.0
  0
VERTEX
  8
ondergrond2top_impermeable_layer_8
 10
1511.7664884372762
 20
-108.95829010009766
 30
0.0
  0
VERTEX
  8
ondergrond2top_impermeable_layer_8
 10
1763.7275698434887
 20
-107.31360626220703
 30
0.0
  0
VERTEX
  8
ondergrond2top_impermeable_layer_8
 10
2015.6886512497015
 20
-105.57615661621094
 30
0.0
  0
VERTEX
  8
ondergrond2top_impermeable_layer_8
 10
2267.6497326559142
 20
-103.7236328125
 30
0.0
  0
VERTEX
  8
ondergrond2top_impermeable_layer_8
 10
2519.610814062127
 20
-101.80115509033203
 30
0.0
  0
VERTEX
  8
ondergrond2top_impermeable_layer_8
 10
2771.5718954683393
 20
-99.7867431640625
 30
0.0
  0
VERTEX
  8
ondergrond2top_impermeable_layer_8
 10
3023.5329768745523
 20
-97.73491668701172
 30
0.0
  0
VERTEX
  8
ondergrond2top_impermeable_layer_8
 10
3275.494058280765
 20
-95.64593505859375
 30
0.0
  0
VERTEX
  8
ondergrond2top_impermeable_layer_8
 10
3527.4551396869774
 20
-93.64546203613281
 30
0.0
  0
VERTEX
  8
ondergrond2top_impermeable_layer_8
 10
3779.4162210931904
 20
-91.71709442138672
 30
0.0
  0
VERTEX
  8
ondergrond2top_impermeable_layer_8
 10
4031.377302499403
 20
-89.89268493652344
 30
0.0
  0
VERTEX
  8
ondergrond2top_impermeable_layer_8
 10
4283.338383905616
 20
-88.13860321044922
 30
0.0
  0
VERTEX
  8
ondergrond2top_impermeable_layer_8
 10
4535.2994653118285
 20
-86.4843521118164
 30
0.0
  0
VERTEX
  8
ondergrond2top_impermeable_layer_8
 10
4787.260546718041
 20
-84.9034423828125
 30
0.0
  0
VERTEX
  8
ondergrond2top_impermeable_layer_8
 10
5039.221628124254
 20
-83.40730285644531
 30
0.0
  0
VERTEX
  8
ondergrond2top_impermeable_layer_8
 10
5291.182709530466
 20
-81.93962097167969
 30
0.0
  0
VERTEX
  8
ondergrond2top_impermeable_layer_8
 10
5543.143790936679
 20
-80.5011215209961
 30
0.0
  0
VERTEX
  8
ondergrond2top_impermeable_layer_8
 10
5795.104872342892
 20
-79.05786895751953
 30
0.0
  0
VERTEX
  8
ondergrond2top_impermeable_layer_8
 10
6047.065953749105
 20
-77.58869171142578
 30
0.0
  0
VERTEX
  8
ondergrond2top_impermeable_layer_8
 10
6299.027035155317
 20
-76.04232025146484
 30
0.0
  0
VERTEX
  8
ondergrond2top_impermeable_layer_8
 10
6550.98811656153
 20
-74.44742584228516
 30
0.0
  0
VERTEX
  8
ondergrond2top_impermeable_layer_8
 10
6802.949197967742
 20
-72.7805404663086
 30
0.0
  0
VERTEX
  8
ondergrond2top_impermeable_layer_8
 10
7054.910279373955
 20
-71.06783294677734
 30
0.0
  0
VERTEX
  8
ondergrond2top_impermeable_layer_8
 10
7306.871360780168
 20
-69.36310577392578
 30
0.0
  0
VERTEX
  8
ondergrond2top_impermeable_layer_8
 10
7558.832442186381
 20
-67.71880340576172
 30
0.0
  0
VERTEX
  8
ondergrond2top_impermeable_layer_8
 10
7810.793523592593
 20
-66.12175750732422
 30
0.0
  0
VERTEX
  8
ondergrond2top_impermeable_layer_8
 10
8062.754604998806
 20
-64.6152114868164
 30
0.0
  0
VERTEX
  8
ondergrond2top_impermeable_layer_8
 10
8314.71568640502
 20
-63.17078399658203
 30
0.0
  0
VERTEX
  8
ondergrond2top_impermeable_layer_8
 10
8566.676767811232
 20
-61.84328079223633
 30
0.0
  0
VERTEX
  8
ondergrond2top_impermeable_layer_8
 10
8818.637849217444
 20
-60.58686065673828
 30
0.0
  0
VERTEX
  8
ondergrond2top_impermeable_layer_8
 10
9070.598930623657
 20
-59.443504333496094
 30
0.0
  0
VERTEX
  8
ondergrond2top_impermeable_layer_8
 10
9322.56001202987
 20
-58.39012908935547
 30
0.0
  0
VERTEX
  8
ondergrond2top_impermeable_layer_8
 10
9574.521093436082
 20
-57.452293395996094
 30
0.0
  0
VERTEX
  8
ondergrond2top_impermeable_layer_8
 10
9826.482174842295
 20
-56.60491180419922
 30
0.0
  0
VERTEX
  8
ondergrond2top_impermeable_layer_8
 10
10078.443256248507
 20
-55.819786071777344
 30
0.0
  0
VERTEX
  8
ondergrond2top_impermeable_layer_8
 10
10330.40433765472
 20
-55.04486083984375
 30
0.0
  0
VERTEX
  8
ondergrond2top_impermeable_layer_8
 10
10582.365419060932
 20
-54.30191421508789
 30
0.0
  0
VERTEX
  8
ondergrond2top_impermeable_layer_8
 10
10834.326500467145
 20
-53.53650665283203
 30
0.0
  0
VERTEX
  8
ondergrond2top_impermeable_layer_8
 10
11086.287581873357
 20
-52.75312805175781
 30
0.0
  0
VERTEX
  8
ondergrond2top_impermeable_layer_8
 10
11338.248663279572
 20
-51.9366340637207
 30
0.0
  0
VERTEX
  8
ondergrond2top_impermeable_layer_8
 10
11590.209744685784
 20
-51.081787109375
 30
0.0
  0
VERTEX
  8
ondergrond2top_impermeable_layer_8
 10
11842.170826091997
 20
-50.176822662353516
 30
0.0
  0
VERTEX
  8
ondergrond2top_impermeable_layer_8
 10
12094.13190749821
 20
-49.20591735839844
 30
0.0
  0
VERTEX
  8
ondergrond2top_impermeable_layer_8
 10
12346.092988904422
 20
-48.16249465942383
 30
0.0
  0
VERTEX
  8
ondergrond2top_impermeable_layer_8
 10
12598.054070310634
 20
-47.069332122802734
 30
0.0
  0
VERTEX
  8
ondergrond2top_impermeable_layer_8
 10
12850.015151716847
 20
-45.8846435546875
 30
0.0
  0
VERTEX
  8
ondergrond2top_impermeable_layer_8
 10
13101.97623312306
 20
-44.66114807128906
 30
0.0
  0
VERTEX
  8
ondergrond2top_impermeable_layer_8
 10
13353.937314529272
 20
-43.40153503417969
 30
0.0
  0
VERTEX
  8
ondergrond2top_impermeable_layer_8
 10
13605.898395935485
 20
-42.144012451171875
 30
0.0
  0
VERTEX
  8
ondergrond2top_impermeable_layer_8
 10
13857.859477341697
 20
-39.56005096435547
 30
0.0
  0
VERTEX
  8
ondergrond2top_impermeable_layer_8
 10
14109.82055874791
 20
-38.29041290283203
 30
0.0
  0
VERTEX
  8
ondergrond2top_impermeable_layer_8
 10
14361.781640154122
 20
-37.06051254272461
 30
0.0
  0
VERTEX
  8
ondergrond2top_impermeable_layer_8
 10
14613.742721560337
 20
-35.84926986694336
 30
0.0
  0
VERTEX
  8
ondergrond2top_impermeable_layer_8
 10
14865.70380296655
 20
-34.66942596435547
 30
0.0
  0
VERTEX
  8
ondergrond2top_impermeable_layer_8
 10
15117.664884372762
 20
-33.48823165893555
 30
0.0
  0
VERTEX
  8
ondergrond2top_impermeable_layer_8
 10
15369.625965778974
 20
-32.313690185546875
 30
0.0
  0
VERTEX
  8
ondergrond2top_impermeable_layer_8
 10
15621.587047185187
 20
-31.148637771606445
 30
0.0
  0
VERTEX
  8
ondergrond2top_impermeable_layer_8
 10
15873.5481285914
 20
-29.96038246154785
 30
0.0
  0
VERTEX
  8
ondergrond2top_impermeable_layer_8
 10
16125.509209997612
 20
-28.729114532470703
 30
0.0
  0
VERTEX
  8
ondergrond2top_impermeable_layer_8
 10
16377.470291403824
 20
-27.483810424804688
 30
0.0
  0
VERTEX
  8
ondergrond2top_impermeable_layer_8
 10
16629.43137281004
 20
-26.231067657470703
 30
0.0
  0
VERTEX
  8
ondergrond2top_impermeable_layer_8
 10
16881.39245421625
 20
-25.039098739624023
 30
0.0
  0
VERTEX
  8
ondergrond2top_impermeable_layer_8
 10
17133.353535622464
 20
-23.91803550720215
 30
0.0
  0
VERTEX
  8
ondergrond2top_impermeable_layer_8
 10
17385.314617028675
 20
-22.90842056274414
 30
0.0
  0
VERTEX
  8
ondergrond2top_impermeable_layer_8
 10
17637.27569843489
 20
-21.990114212036133
 30
0.0
  0
VERTEX
  8
ondergrond2top_impermeable_layer_8
 10
17889.2367798411
 20
-21.14205551147461
 30
0.0
  0
VERTEX
  8
ondergrond2top_impermeable_layer_8
 10
18141.197861247314
 20
-20.223642349243164
 30
0.0
  0
VERTEX
  8
ondergrond2top_impermeable_layer_8
 10
18393.158942653525
 20
-19.394203186035156
 30
0.0
  0
VERTEX
  8
ondergrond2top_impermeable_layer_8
 10
18645.12002405974
 20
-18.59617042541504
 30
0.0
  0
VERTEX
  8
ondergrond2top_impermeable_layer_8
 10
18897.08110546595
 20
-17.834409713745117
 30
0.0
  0
VERTEX
  8
ondergrond2top_impermeable_layer_8
 10
19149.042186872164
 20
-17.069934844970703
 30
0.0
  0
VERTEX
  8
ondergrond2top_impermeable_layer_8
 10
19401.00326827838
 20
-16.296213150024414
 30
0.0
  0
VERTEX
  8
ondergrond2top_impermeable_layer_8
 10
19652.96434968459
 20
-15.477559089660645
 30
0.0
  0
VERTEX
  8
ondergrond2top_impermeable_layer_8
 10
19904.925431090804
 20
-14.570738792419434
 30
0.0
  0
VERTEX
  8
ondergrond2top_impermeable_layer_8
 10
20156.886512497014
 20
-13.51806640625
 30
0.0
  0
VERTEX
  8
ondergrond2top_impermeable_layer_8
 10
20408.84759390323
 20
-12.314742088317871
 30
0.0
  0
VERTEX
  8
ondergrond2top_impermeable_layer_8
 10
20660.80867530944
 20
-10.922311782836914
 30
0.0
  0
VERTEX
  8
ondergrond2top_impermeable_layer_8
 10
20912.769756715654
 20
-9.316375732421875
 30
0.0
  0
VERTEX
  8
ondergrond2top_impermeable_layer_8
 10
21164.730838121865
 20
-7.481727123260498
 30
0.0
  0
VERTEX
  8
ondergrond2top_impermeable_layer_8
 10
21416.69191952808
 20
-5.475367546081543
 30
0.0
  0
VERTEX
  8
ondergrond2top_impermeable_layer_8
 10
21668.65300093429
 20
-3.270169496536255
 30
0.0
  0
VERTEX
  8
ondergrond2top_impermeable_layer_8
 10
21920.614082340504
 20
1.0861541032791138
 30
0.0
  0
VERTEX
  8
ondergrond2top_impermeable_layer_8
 10
22172.575163746715
 20
3.5283360481262207
 30
0.0
  0
VERTEX
  8
ondergrond2top_impermeable_layer_8
 10
22424.53624515293
 20
5.848026752471924
 30
0.0
  0
VERTEX
  8
ondergrond2top_impermeable_layer_8
 10
22676.497326559143
 20
7.768217086791992
 30
0.0
  0
VERTEX
  8
ondergrond2top_impermeable_layer_8
 10
22928.458407965354
 20
7.7848052978515625
 30
0.0
  0
VERTEX
  8
ondergrond2top_impermeable_layer_8
 10
23180.41948937157
 20
7.682216167449951
 30
0.0
  0
VERTEX
  8
ondergrond2top_impermeable_layer_8
 10
23432.38057077778
 20
7.5197343826293945
 30
0.0
  0
VERTEX
  8
ondergrond2top_impermeable_layer_8
 10
23684.341652183994
 20
7.208725929260254
 30
0.0
  0
VERTEX
  8
ondergrond2top_impermeable_layer_8
 10
23936.302733590204
 20
6.27007532119751
 30
0.0
  0
SEQEND
  0
POLYLINE
 62
7
  8
ondergrond2geohydrological_base_layer
 66
1
 10
0.0
 20
0.0
 30
0.0
 70
8
  0
VERTEX
  8
ondergrond2geohydrological_base_layer
 10
0.0
 20
-59.57631301879883
 30
0.0
  0
VERTEX
  8
ondergrond2geohydrological_base_layer
 10
234.66963464304123
 20
-59.07544708251953
 30
0.0
  0
VERTEX
  8
ondergrond2geohydrological_base_layer
 10
469.33926928608247
 20
-59.07544708251953
 30
0.0
  0
VERTEX
  8
ondergrond2geohydrological_base_layer
 10
704.0089039291237
 20
-58.40149688720703
 30
0.0
  0
VERTEX
  8
ondergrond2geohydrological_base_layer
 10
938.6785385721649
 20
-58.17564392089844
 30
0.0
  0
VERTEX
  8
ondergrond2geohydrological_base_layer
 10
1173.348173215206
 20
-57.81709289550781
 30
0.0
  0
VERTEX
  8
ondergrond2geohydrological_base_layer
 10
1408.0178078582474
 20
-57.81709289550781
 30
0.0
  0
VERTEX
  8
ondergrond2geohydrological_base_layer
 10
1642.6874425012886
 20
-57.58365249633789
 30
0.0
  0
VERTEX
  8
ondergrond2geohydrological_base_layer
 10
1877.3570771443299
 20
-57.33919906616211
 30
0.0
  0
VERTEX
  8
ondergrond2geohydrological_base_layer
 10
2112.026711787371
 20
-57.16895294189453
 30
0.0
  0
VERTEX
  8
ondergrond2geohydrological_base_layer
 10
2346.696346430412
 20
-56.88951110839844
 30
0.0
  0
VERTEX
  8
ondergrond2geohydrological_base_layer
 10
2581.3659810734534
 20
-56.71665954589844
 30
0.0
  0
VERTEX
  8
ondergrond2geohydrological_base_layer
 10
2816.0356157164947
 20
-56.538578033447266
 30
0.0
  0
VERTEX
  8
ondergrond2geohydrological_base_layer
 10
3050.705250359536
 20
-56.37275695800781
 30
0.0
  0
VERTEX
  8
ondergrond2geohydrological_base_layer
 10
3285.3748850025772
 20
-56.08420181274414
 30
0.0
  0
VERTEX
  8
ondergrond2geohydrological_base_layer
 10
3520.0445196456185
 20
-55.88540267944336
 30
0.0
  0
VERTEX
  8
ondergrond2geohydrological_base_layer
 10
3754.7141542886598
 20
-55.652034759521484
 30
0.0
  0
VERTEX
  8
ondergrond2geohydrological_base_layer
 10
3989.383788931701
 20
-55.41926574707031
 30
0.0
  0
VERTEX
  8
ondergrond2geohydrological_base_layer
 10
4224.053423574742
 20
-54.94490051269531
 30
0.0
  0
VERTEX
  8
ondergrond2geohydrological_base_layer
 10
4458.723058217784
 20
-54.59825897216797
 30
0.0
  0
VERTEX
  8
ondergrond2geohydrological_base_layer
 10
4693.392692860824
 20
-54.59825897216797
 30
0.0
  0
VERTEX
  8
ondergrond2geohydrological_base_layer
 10
4928.062327503866
 20
-54.041568756103516
 30
0.0
  0
VERTEX
  8
ondergrond2geohydrological_base_layer
 10
5162.731962146907
 20
-53.59994125366211
 30
0.0
  0
VERTEX
  8
ondergrond2geohydrological_base_layer
 10
5397.401596789949
 20
-52.489620208740234
 30
0.0
  0
VERTEX
  8
ondergrond2geohydrological_base_layer
 10
5632.071231432989
 20
-52.489620208740234
 30
0.0
  0
VERTEX
  8
ondergrond2geohydrological_base_layer
 10
5866.740866076031
 20
-51.88898849487305
 30
0.0
  0
VERTEX
  8
ondergrond2geohydrological_base_layer
 10
6101.410500719072
 20
-51.43288040161133
 30
0.0
  0
VERTEX
  8
ondergrond2geohydrological_base_layer
 10
6336.080135362114
 20
-50.75666046142578
 30
0.0
  0
VERTEX
  8
ondergrond2geohydrological_base_layer
 10
6570.7497700051545
 20
-50.37940979003906
 30
0.0
  0
VERTEX
  8
ondergrond2geohydrological_base_layer
 10
6805.419404648196
 20
-49.78578567504883
 30
0.0
  0
VERTEX
  8
ondergrond2geohydrological_base_layer
 10
7040.089039291237
 20
-49.33677673339844
 30
0.0
  0
VERTEX
  8
ondergrond2geohydrological_base_layer
 10
7274.758673934279
 20
-48.498313903808594
 30
0.0
  0
VERTEX
  8
ondergrond2geohydrological_base_layer
 10
7509.4283085773195
 20
-47.87860107421875
 30
0.0
  0
VERTEX
  8
ondergrond2geohydrological_base_layer
 10
7744.09794322036
 20
-46.857688903808594
 30
0.0
  0
VERTEX
  8
ondergrond2geohydrological_base_layer
 10
7978.767577863402
 20
-46.857688903808594
 30
0.0
  0
VERTEX
  8
ondergrond2geohydrological_base_layer
 10
8213.437212506444
 20
-46.14672088623047
 30
0.0
  0
VERTEX
  8
ondergrond2geohydrological_base_layer
 10
8448.106847149484
 20
-45.00148010253906
 30
0.0
  0
VERTEX
  8
ondergrond2geohydrological_base_layer
 10
8682.776481792525
 20
-47.43677520751953
 30
0.0
  0
VERTEX
  8
ondergrond2geohydrological_base_layer
 10
8917.446116435567
 20
-47.43677520751953
 30
0.0
  0
VERTEX
  8
ondergrond2geohydrological_base_layer
 10
9152.115751078609
 20
-45.013980865478516
 30
0.0
  0
VERTEX
  8
ondergrond2geohydrological_base_layer
 10
9386.785385721649
 20
-66.6073989868164
 30
0.0
  0
VERTEX
  8
ondergrond2geohydrological_base_layer
 10
9621.45502036469
 20
-65.78035736083984
 30
0.0
  0
VERTEX
  8
ondergrond2geohydrological_base_layer
 10
9856.124655007732
 20
-64.46318817138672
 30
0.0
  0
VERTEX
  8
ondergrond2geohydrological_base_layer
 10
10090.794289650774
 20
-63.58186340332031
 30
0.0
  0
VERTEX
  8
ondergrond2geohydrological_base_layer
 10
10325.463924293814
 20
-62.19300842285156
 30
0.0
  0
VERTEX
  8
ondergrond2geohydrological_base_layer
 10
10560.133558936855
 20
-61.25830078125
 30
0.0
  0
VERTEX
  8
ondergrond2geohydrological_base_layer
 10
10794.803193579897
 20
-59.87791061401367
 30
0.0
  0
VERTEX
  8
ondergrond2geohydrological_base_layer
 10
11029.472828222939
 20
-58.86610412597656
 30
0.0
  0
VERTEX
  8
ondergrond2geohydrological_base_layer
 10
11264.142462865979
 20
-58.86610412597656
 30
0.0
  0
VERTEX
  8
ondergrond2geohydrological_base_layer
 10
11498.81209750902
 20
-57.22098159790039
 30
0.0
  0
VERTEX
  8
ondergrond2geohydrological_base_layer
 10
11733.481732152062
 20
-54.99262237548828
 30
0.0
  0
VERTEX
  8
ondergrond2geohydrological_base_layer
 10
11968.151366795102
 20
-54.09111022949219
 30
0.0
  0
VERTEX
  8
ondergrond2geohydrological_base_layer
 10
12202.821001438144
 20
-54.09111022949219
 30
0.0
  0
VERTEX
  8
ondergrond2geohydrological_base_layer
 10
12437.490636081186
 20
-52.65432357788086
 30
0.0
  0
VERTEX
  8
ondergrond2geohydrological_base_layer
 10
12672.160270724227
 20
-51.592098236083984
 30
0.0
  0
VERTEX
  8
ondergrond2geohydrological_base_layer
 10
12906.829905367267
 20
-50.13199996948242
 30
0.0
  0
VERTEX
  8
ondergrond2geohydrological_base_layer
 10
13141.499540010309
 20
-49.14543151855469
 30
0.0
  0
VERTEX
  8
ondergrond2geohydrological_base_layer
 10
13376.16917465335
 20
-47.465614318847656
 30
0.0
  0
VERTEX
  8
ondergrond2geohydrological_base_layer
 10
13610.838809296392
 20
-46.3830451965332
 30
0.0
  0
VERTEX
  8
ondergrond2geohydrological_base_layer
 10
13845.508443939432
 20
-44.85430145263672
 30
0.0
  0
VERTEX
  8
ondergrond2geohydrological_base_layer
 10
14080.178078582474
 20
-43.79432678222656
 30
0.0
  0
VERTEX
  8
ondergrond2geohydrological_base_layer
 10
14314.847713225516
 20
-42.05690002441406
 30
0.0
  0
VERTEX
  8
ondergrond2geohydrological_base_layer
 10
14549.517347868557
 20
-42.05690002441406
 30
0.0
  0
VERTEX
  8
ondergrond2geohydrological_base_layer
 10
14784.186982511597
 20
-40.93619918823242
 30
0.0
  0
VERTEX
  8
ondergrond2geohydrological_base_layer
 10
15018.856617154639
 20
-38.375701904296875
 30
0.0
  0
VERTEX
  8
ondergrond2geohydrological_base_layer
 10
15253.52625179768
 20
-36.583641052246094
 30
0.0
  0
VERTEX
  8
ondergrond2geohydrological_base_layer
 10
15488.19588644072
 20
-36.583641052246094
 30
0.0
  0
VERTEX
  8
ondergrond2geohydrological_base_layer
 10
15722.865521083762
 20
-35.44961166381836
 30
0.0
  0
VERTEX
  8
ondergrond2geohydrological_base_layer
 10
15957.535155726804
 20
-33.932308197021484
 30
0.0
  0
VERTEX
  8
ondergrond2geohydrological_base_layer
 10
16192.204790369846
 20
-31.72152328491211
 30
0.0
  0
VERTEX
  8
ondergrond2geohydrological_base_layer
 10
16426.874425012888
 20
-30.506521224975586
 30
0.0
  0
VERTEX
  8
ondergrond2geohydrological_base_layer
 10
16661.544059655927
 20
-28.90669822692871
 30
0.0
  0
VERTEX
  8
ondergrond2geohydrological_base_layer
 10
16896.213694298967
 20
-27.84859848022461
 30
0.0
  0
VERTEX
  8
ondergrond2geohydrological_base_layer
 10
17130.88332894201
 20
-26.284866333007812
 30
0.0
  0
VERTEX
  8
ondergrond2geohydrological_base_layer
 10
17365.55296358505
 20
-25.359132766723633
 30
0.0
  0
VERTEX
  8
ondergrond2geohydrological_base_layer
 10
17600.222598228094
 20
-25.359132766723633
 30
0.0
  0
VERTEX
  8
ondergrond2geohydrological_base_layer
 10
17834.892232871134
 20
-24.31735610961914
 30
0.0
  0
VERTEX
  8
ondergrond2geohydrological_base_layer
 10
18069.561867514174
 20
-22.85213279724121
 30
0.0
  0
VERTEX
  8
ondergrond2geohydrological_base_layer
 10
18304.231502157218
 20
-22.259933471679688
 30
0.0
  0
VERTEX
  8
ondergrond2geohydrological_base_layer
 10
18538.901136800258
 20
-22.259933471679688
 30
0.0
  0
VERTEX
  8
ondergrond2geohydrological_base_layer
 10
18773.570771443297
 20
-21.380889892578125
 30
0.0
  0
VERTEX
  8
ondergrond2geohydrological_base_layer
 10
19008.24040608634
 20
-20.81928825378418
 30
0.0
  0
VERTEX
  8
ondergrond2geohydrological_base_layer
 10
19242.91004072938
 20
-19.94862174987793
 30
0.0
  0
VERTEX
  8
ondergrond2geohydrological_base_layer
 10
19477.57967537242
 20
-18.550434112548828
 30
0.0
  0
VERTEX
  8
ondergrond2geohydrological_base_layer
 10
19712.249310015464
 20
-18.550434112548828
 30
0.0
  0
VERTEX
  8
ondergrond2geohydrological_base_layer
 10
19946.918944658504
 20
-17.86955451965332
 30
0.0
  0
VERTEX
  8
ondergrond2geohydrological_base_layer
 10
20181.588579301548
 20
-16.658777236938477
 30
0.0
  0
VERTEX
  8
ondergrond2geohydrological_base_layer
 10
20416.258213944588
 20
-15.633976936340332
 30
0.0
  0
VERTEX
  8
ondergrond2geohydrological_base_layer
 10
20650.927848587628
 20
-13.94244384765625
 30
0.0
  0
VERTEX
  8
ondergrond2geohydrological_base_layer
 10
20885.59748323067
 20
-11.916056632995605
 30
0.0
  0
VERTEX
  8
ondergrond2geohydrological_base_layer
 10
21120.26711787371
 20
-7.860846996307373
 30
0.0
  0
VERTEX
  8
ondergrond2geohydrological_base_layer
 10
21354.93675251675
 20
-6.124825954437256
 30
0.0
  0
VERTEX
  8
ondergrond2geohydrological_base_layer
 10
21589.606387159794
 20
-3.467616081237793
 30
0.0
  0
VERTEX
  8
ondergrond2geohydrological_base_layer
 10
21824.276021802834
 20
-1.5729949474334717
 30
0.0
  0
VERTEX
  8
ondergrond2geohydrological_base_layer
 10
22058.945656445878
 20
-1.5729949474334717
 30
0.0
  0
VERTEX
  8
ondergrond2geohydrological_base_layer
 10
22293.615291088918
 20
2.0415310859680176
 30
0.0
  0
VERTEX
  8
ondergrond2geohydrological_base_layer
 10
22528.284925731958
 20
4.636792182922363
 30
0.0
  0
VERTEX
  8
ondergrond2geohydrological_base_layer
 10
22762.954560375
 20
5.126069068908691
 30
0.0
  0
VERTEX
  8
ondergrond2geohydrological_base_layer
 10
22997.62419501804
 20
5.126069068908691
 30
0.0
  0
VERTEX
  8
ondergrond2geohydrological_base_layer
 10
23232.29382966108
 20
4.708795070648193
 30
0.0
  0
VERTEX
  8
ondergrond2geohydrological_base_layer
 10
23466.963464304124
 20
4.22442102432251
 30
0.0
  0
VERTEX
  8
ondergrond2geohydrological_base_layer
 10
23701.633098947164
 20
3.254235029220581
 30
0.0
  0
VERTEX
  8
ondergrond2geohydrological_base_layer
 10
23936.302733590204
 20
2.505929946899414
 30
0.0
  0
SEQEND
  0
ENDSEC
  0
EOF
